<svg width="30" height="30" viewBox="0 0 30 30" fill="none" xmlns="http://www.w3.org/2000/svg">
<path d="M15 20C17.7614 20 20 17.7614 20 15C20 12.2386 17.7614 10 15 10C12.2386 10 10 12.2386 10 15C10 17.7614 12.2386 20 15 20Z" fill="black"/>
<path d="M16.25 5.08625V2.5H13.75V5.08625C11.5504 5.3671 9.50621 6.37021 7.93821 7.93821C6.37021 9.50621 5.3671 11.5504 5.08625 13.75H2.5V16.25H5.08625C5.36669 18.4498 6.36967 20.4942 7.93775 22.0623C9.50582 23.6303 11.5502 24.6333 13.75 24.9137V27.5H16.25V24.9137C18.4499 24.6335 20.4944 23.6306 22.0625 22.0625C23.6306 20.4944 24.6335 18.4499 24.9137 16.25H27.5V13.75H24.9137C24.6333 11.5502 23.6303 9.50582 22.0623 7.93775C20.4942 6.36967 18.4498 5.36669 16.25 5.08625ZM15 22.5C10.8637 22.5 7.5 19.1362 7.5 15C7.5 10.8637 10.8637 7.5 15 7.5C19.1362 7.5 22.5 10.8637 22.5 15C22.5 19.1362 19.1362 22.5 15 22.5Z" fill="black"/>
</svg>
