<svg width="77" height="78" viewBox="0 0 77 78" fill="none" xmlns="http://www.w3.org/2000/svg">
<path d="M15.0301 0H61.2763C69.5785 0 76.3064 6.84585 76.3064 15.2937V62.3507C76.3064 70.7985 69.5785 77.6443 61.2763 77.6443H15.0301C6.72789 77.6443 3.86952e-06 70.7985 3.86952e-06 62.3507V15.2937C-0.00589262 6.84585 6.72789 0 15.0301 0Z" fill="#FF3008"/>
<path d="M58.1141 32.2748C56.2253 28.742 52.4476 26.5507 48.4002 26.5954H17.5944C17.1446 26.5954 16.7849 26.8637 16.605 27.2215C16.4251 27.5793 16.56 28.0712 16.8298 28.3395L23.5307 34.958C24.1153 35.5393 24.9248 35.8524 25.7793 35.8524H47.5457C49.1197 35.8524 50.334 37.0151 50.334 38.5803C50.334 40.1007 49.0747 41.3082 47.5907 41.3529H32.615C32.1653 41.3529 31.8055 41.6212 31.6256 41.979C31.4457 42.3367 31.5806 42.8286 31.8505 43.097L38.5513 49.8496C39.1359 50.431 39.9454 50.744 40.7999 50.744H47.5907C56.4052 50.6993 63.016 41.4423 58.1141 32.2748Z" fill="white"/>
</svg>
