<svg width="323" height="61" viewBox="0 0 323 61" fill="none" xmlns="http://www.w3.org/2000/svg">
<g filter="url(#filter0_d_323_2490)">
<rect x="4" width="315" height="53" rx="10" fill="#4267B2"/>
<path d="M46.9131 26.5001C46.9131 20.1488 42.2121 15.0001 36.4131 15.0001C30.6141 15.0001 25.9131 20.1488 25.9131 26.5001C25.9131 32.24 29.7528 36.9976 34.7725 37.8604V29.8243H32.1064V26.5001H34.7725V23.9665C34.7725 21.0843 36.34 19.4922 38.7385 19.4922C39.8873 19.4922 41.0889 19.7169 41.0889 19.7169V22.5469H39.7648C38.4605 22.5469 38.0537 23.4334 38.0537 24.3428V26.5001H40.9658L40.5003 29.8243H38.0537V37.8604C43.0734 36.9976 46.9131 32.24 46.9131 26.5001Z" fill="white"/>
<path d="M78.9309 31.162C77.9349 31.162 77.0349 31.036 76.2309 30.784C75.4269 30.52 74.7309 30.142 74.1429 29.65L74.6649 28.462C75.2769 28.93 75.9189 29.278 76.5909 29.506C77.2629 29.734 78.0429 29.848 78.9309 29.848C80.0109 29.848 80.8089 29.65 81.3249 29.254C81.8529 28.846 82.1169 28.312 82.1169 27.652C82.1169 27.124 81.9249 26.704 81.5409 26.392C81.1689 26.08 80.5389 25.834 79.6509 25.654L77.7789 25.276C76.6509 25.036 75.8049 24.646 75.2409 24.106C74.6889 23.554 74.4129 22.822 74.4129 21.91C74.4129 21.154 74.6049 20.494 74.9889 19.93C75.3849 19.366 75.9309 18.928 76.6269 18.616C77.3229 18.304 78.1269 18.148 79.0389 18.148C79.8909 18.148 80.6829 18.286 81.4149 18.562C82.1469 18.826 82.7649 19.21 83.2689 19.714L82.7469 20.866C82.2069 20.374 81.6369 20.02 81.0369 19.804C80.4369 19.576 79.7649 19.462 79.0209 19.462C78.0729 19.462 77.3169 19.684 76.7529 20.128C76.1889 20.56 75.9069 21.136 75.9069 21.856C75.9069 22.432 76.0809 22.888 76.4289 23.224C76.7889 23.56 77.3709 23.806 78.1749 23.962L80.0469 24.358C81.2589 24.61 82.1529 24.994 82.7289 25.51C83.3169 26.014 83.6109 26.704 83.6109 27.58C83.6109 28.288 83.4189 28.912 83.0349 29.452C82.6629 29.992 82.1229 30.412 81.4149 30.712C80.7189 31.012 79.8909 31.162 78.9309 31.162ZM85.5231 20.074V18.436H87.3231V20.074H85.5231ZM85.7031 31V22.252H87.1611V31H85.7031ZM93.7567 34.402C93.0007 34.402 92.2867 34.3 91.6147 34.096C90.9547 33.904 90.3667 33.61 89.8507 33.214L90.3367 32.152C90.8767 32.536 91.4107 32.812 91.9387 32.98C92.4787 33.148 93.0607 33.232 93.6847 33.232C95.4127 33.232 96.2767 32.344 96.2767 30.568V29.02C96.0247 29.572 95.6287 30.01 95.0887 30.334C94.5607 30.646 93.9547 30.802 93.2707 30.802C92.4667 30.802 91.7707 30.616 91.1827 30.244C90.5947 29.872 90.1387 29.362 89.8147 28.714C89.5027 28.054 89.3467 27.292 89.3467 26.428C89.3467 25.564 89.5027 24.808 89.8147 24.16C90.1387 23.5 90.5947 22.99 91.1827 22.63C91.7707 22.27 92.4667 22.09 93.2707 22.09C93.9547 22.09 94.5607 22.246 95.0887 22.558C95.6287 22.87 96.0247 23.296 96.2767 23.836V22.252H97.6987V30.37C97.6987 31.714 97.3627 32.722 96.6907 33.394C96.0307 34.066 95.0527 34.402 93.7567 34.402ZM93.5407 29.614C94.3807 29.614 95.0467 29.326 95.5387 28.75C96.0307 28.174 96.2767 27.4 96.2767 26.428C96.2767 25.456 96.0307 24.688 95.5387 24.124C95.0467 23.548 94.3807 23.26 93.5407 23.26C92.7127 23.26 92.0527 23.548 91.5607 24.124C91.0687 24.688 90.8227 25.456 90.8227 26.428C90.8227 27.4 91.0687 28.174 91.5607 28.75C92.0527 29.326 92.7127 29.614 93.5407 29.614ZM100.434 31V22.252H101.856V23.746C102.144 23.194 102.552 22.78 103.08 22.504C103.608 22.228 104.202 22.09 104.862 22.09C106.938 22.09 107.976 23.242 107.976 25.546V31H106.518V25.636C106.518 24.82 106.356 24.226 106.032 23.854C105.72 23.47 105.216 23.278 104.52 23.278C103.716 23.278 103.074 23.53 102.594 24.034C102.126 24.526 101.892 25.186 101.892 26.014V31H100.434ZM120.489 31.162C118.821 31.162 117.555 30.724 116.691 29.848C115.827 28.96 115.395 27.67 115.395 25.978V18.31H116.871V25.906C116.871 28.534 118.077 29.848 120.489 29.848C122.877 29.848 124.071 28.534 124.071 25.906V18.31H125.547V25.978C125.547 27.67 125.115 28.96 124.251 29.848C123.399 30.724 122.145 31.162 120.489 31.162ZM128.383 34.24V22.252H129.805V23.818C130.069 23.278 130.459 22.858 130.975 22.558C131.503 22.246 132.115 22.09 132.811 22.09C133.591 22.09 134.269 22.276 134.845 22.648C135.433 23.008 135.883 23.53 136.195 24.214C136.519 24.886 136.681 25.69 136.681 26.626C136.681 27.55 136.519 28.354 136.195 29.038C135.883 29.71 135.433 30.232 134.845 30.604C134.269 30.976 133.591 31.162 132.811 31.162C132.139 31.162 131.539 31.012 131.011 30.712C130.483 30.412 130.093 29.998 129.841 29.47V34.24H128.383ZM132.505 29.992C133.321 29.992 133.975 29.704 134.467 29.128C134.959 28.54 135.205 27.706 135.205 26.626C135.205 25.534 134.959 24.7 134.467 24.124C133.975 23.548 133.321 23.26 132.505 23.26C131.689 23.26 131.035 23.548 130.543 24.124C130.051 24.7 129.805 25.534 129.805 26.626C129.805 27.706 130.051 28.54 130.543 29.128C131.035 29.704 131.689 29.992 132.505 29.992ZM145.822 31L142.564 22.252H144.094L146.56 29.29L149.116 22.252H150.358L152.878 29.308L155.38 22.252H156.838L153.562 31H152.176L149.71 24.214L147.226 31H145.822ZM158.455 20.074V18.436H160.255V20.074H158.455ZM158.635 31V22.252H160.093V31H158.635ZM166.328 31.162C165.296 31.162 164.522 30.892 164.006 30.352C163.49 29.8 163.232 29.008 163.232 27.976V23.386H161.522V22.252H163.232V19.57H164.69V22.252H167.462V23.386H164.69V27.832C164.69 28.516 164.834 29.038 165.122 29.398C165.41 29.746 165.878 29.92 166.526 29.92C166.718 29.92 166.91 29.896 167.102 29.848C167.294 29.8 167.468 29.752 167.624 29.704L167.876 30.82C167.72 30.904 167.492 30.982 167.192 31.054C166.892 31.126 166.604 31.162 166.328 31.162ZM169.111 31V18.31H170.569V23.692C170.857 23.164 171.259 22.768 171.775 22.504C172.303 22.228 172.891 22.09 173.539 22.09C175.615 22.09 176.653 23.242 176.653 25.546V31H175.195V25.636C175.195 24.82 175.033 24.226 174.709 23.854C174.397 23.47 173.893 23.278 173.197 23.278C172.393 23.278 171.751 23.53 171.271 24.034C170.803 24.526 170.569 25.186 170.569 26.014V31H169.111ZM184.163 31V18.31H192.011V19.552H185.639V23.98H191.651V25.222H185.639V31H184.163ZM196.229 31.162C195.629 31.162 195.089 31.048 194.609 30.82C194.141 30.58 193.769 30.256 193.493 29.848C193.217 29.44 193.079 28.984 193.079 28.48C193.079 27.844 193.241 27.34 193.565 26.968C193.901 26.596 194.447 26.332 195.203 26.176C195.971 26.008 197.015 25.924 198.335 25.924H198.911V25.366C198.911 24.622 198.755 24.088 198.443 23.764C198.143 23.428 197.657 23.26 196.985 23.26C196.457 23.26 195.947 23.338 195.455 23.494C194.963 23.638 194.459 23.878 193.943 24.214L193.439 23.152C193.895 22.828 194.447 22.57 195.095 22.378C195.755 22.186 196.385 22.09 196.985 22.09C198.113 22.09 198.947 22.366 199.487 22.918C200.039 23.47 200.315 24.328 200.315 25.492V31H198.947V29.488C198.719 30.004 198.365 30.412 197.885 30.712C197.417 31.012 196.865 31.162 196.229 31.162ZM196.463 30.064C197.183 30.064 197.771 29.818 198.227 29.326C198.683 28.822 198.911 28.186 198.911 27.418V26.878H198.353C197.381 26.878 196.613 26.926 196.049 27.022C195.497 27.106 195.107 27.262 194.879 27.49C194.663 27.706 194.555 28.006 194.555 28.39C194.555 28.882 194.723 29.284 195.059 29.596C195.407 29.908 195.875 30.064 196.463 30.064ZM206.727 31.162C205.851 31.162 205.095 30.976 204.459 30.604C203.823 30.22 203.331 29.686 202.983 29.002C202.647 28.306 202.479 27.496 202.479 26.572C202.479 25.18 202.857 24.088 203.613 23.296C204.369 22.492 205.407 22.09 206.727 22.09C207.267 22.09 207.801 22.186 208.329 22.378C208.857 22.57 209.295 22.84 209.643 23.188L209.139 24.25C208.791 23.914 208.407 23.668 207.987 23.512C207.579 23.356 207.189 23.278 206.817 23.278C205.905 23.278 205.203 23.566 204.711 24.142C204.219 24.706 203.973 25.522 203.973 26.59C203.973 27.634 204.219 28.462 204.711 29.074C205.203 29.674 205.905 29.974 206.817 29.974C207.189 29.974 207.579 29.896 207.987 29.74C208.407 29.584 208.791 29.332 209.139 28.984L209.643 30.046C209.295 30.394 208.851 30.67 208.311 30.874C207.783 31.066 207.255 31.162 206.727 31.162ZM215.118 31.162C213.738 31.162 212.646 30.76 211.842 29.956C211.038 29.14 210.636 28.036 210.636 26.644C210.636 25.744 210.816 24.952 211.176 24.268C211.536 23.572 212.028 23.038 212.652 22.666C213.288 22.282 214.02 22.09 214.848 22.09C216.036 22.09 216.966 22.474 217.638 23.242C218.31 23.998 218.646 25.042 218.646 26.374V26.932H212.058C212.106 27.928 212.394 28.69 212.922 29.218C213.45 29.734 214.182 29.992 215.118 29.992C215.646 29.992 216.15 29.914 216.63 29.758C217.11 29.59 217.566 29.32 217.998 28.948L218.502 29.974C218.106 30.346 217.602 30.64 216.99 30.856C216.378 31.06 215.754 31.162 215.118 31.162ZM214.884 23.17C214.056 23.17 213.402 23.428 212.922 23.944C212.442 24.46 212.16 25.138 212.076 25.978H217.386C217.35 25.09 217.116 24.4 216.684 23.908C216.264 23.416 215.664 23.17 214.884 23.17ZM225.184 31.162C224.488 31.162 223.876 31.006 223.348 30.694C222.832 30.382 222.442 29.956 222.178 29.416V31H220.756V18.31H222.214V23.764C222.466 23.248 222.856 22.84 223.384 22.54C223.912 22.24 224.512 22.09 225.184 22.09C225.964 22.09 226.642 22.276 227.218 22.648C227.806 23.008 228.256 23.53 228.568 24.214C228.892 24.886 229.054 25.69 229.054 26.626C229.054 27.55 228.892 28.354 228.568 29.038C228.256 29.71 227.806 30.232 227.218 30.604C226.642 30.976 225.964 31.162 225.184 31.162ZM224.878 29.992C225.694 29.992 226.348 29.704 226.84 29.128C227.332 28.54 227.578 27.706 227.578 26.626C227.578 25.534 227.332 24.7 226.84 24.124C226.348 23.548 225.694 23.26 224.878 23.26C224.062 23.26 223.408 23.548 222.916 24.124C222.424 24.7 222.178 25.534 222.178 26.626C222.178 27.706 222.424 28.54 222.916 29.128C223.408 29.704 224.062 29.992 224.878 29.992ZM234.886 31.162C234.034 31.162 233.296 30.976 232.672 30.604C232.048 30.232 231.562 29.71 231.214 29.038C230.878 28.354 230.71 27.55 230.71 26.626C230.71 25.702 230.878 24.904 231.214 24.232C231.562 23.548 232.048 23.02 232.672 22.648C233.296 22.276 234.034 22.09 234.886 22.09C235.726 22.09 236.458 22.276 237.082 22.648C237.718 23.02 238.204 23.548 238.54 24.232C238.888 24.904 239.062 25.702 239.062 26.626C239.062 27.55 238.888 28.354 238.54 29.038C238.204 29.71 237.718 30.232 237.082 30.604C236.458 30.976 235.726 31.162 234.886 31.162ZM234.886 29.992C235.702 29.992 236.356 29.704 236.848 29.128C237.34 28.54 237.586 27.706 237.586 26.626C237.586 25.534 237.34 24.7 236.848 24.124C236.356 23.548 235.702 23.26 234.886 23.26C234.058 23.26 233.398 23.548 232.906 24.124C232.426 24.7 232.186 25.534 232.186 26.626C232.186 27.706 232.426 28.54 232.906 29.128C233.398 29.704 234.058 29.992 234.886 29.992ZM244.888 31.162C244.036 31.162 243.298 30.976 242.674 30.604C242.05 30.232 241.564 29.71 241.216 29.038C240.88 28.354 240.712 27.55 240.712 26.626C240.712 25.702 240.88 24.904 241.216 24.232C241.564 23.548 242.05 23.02 242.674 22.648C243.298 22.276 244.036 22.09 244.888 22.09C245.728 22.09 246.46 22.276 247.084 22.648C247.72 23.02 248.206 23.548 248.542 24.232C248.89 24.904 249.064 25.702 249.064 26.626C249.064 27.55 248.89 28.354 248.542 29.038C248.206 29.71 247.72 30.232 247.084 30.604C246.46 30.976 245.728 31.162 244.888 31.162ZM244.888 29.992C245.704 29.992 246.358 29.704 246.85 29.128C247.342 28.54 247.588 27.706 247.588 26.626C247.588 25.534 247.342 24.7 246.85 24.124C246.358 23.548 245.704 23.26 244.888 23.26C244.06 23.26 243.4 23.548 242.908 24.124C242.428 24.7 242.188 25.534 242.188 26.626C242.188 27.706 242.428 28.54 242.908 29.128C243.4 29.704 244.06 29.992 244.888 29.992ZM251.254 31V18.31H252.712V26.14H252.748L256.798 22.252H258.652L254.26 26.464L259.03 31H257.176L252.748 26.896H252.712V31H251.254Z" fill="white"/>
</g>
<defs>
<filter id="filter0_d_323_2490" x="0" y="0" width="323" height="61" filterUnits="userSpaceOnUse" color-interpolation-filters="sRGB">
<feFlood flood-opacity="0" result="BackgroundImageFix"/>
<feColorMatrix in="SourceAlpha" type="matrix" values="0 0 0 0 0 0 0 0 0 0 0 0 0 0 0 0 0 0 127 0" result="hardAlpha"/>
<feOffset dy="4"/>
<feGaussianBlur stdDeviation="2"/>
<feComposite in2="hardAlpha" operator="out"/>
<feColorMatrix type="matrix" values="0 0 0 0 0 0 0 0 0 0 0 0 0 0 0 0 0 0 0.15 0"/>
<feBlend mode="normal" in2="BackgroundImageFix" result="effect1_dropShadow_323_2490"/>
<feBlend mode="normal" in="SourceGraphic" in2="effect1_dropShadow_323_2490" result="shape"/>
</filter>
</defs>
</svg>
