<svg width="24" height="26" viewBox="0 0 24 26" fill="none" xmlns="http://www.w3.org/2000/svg">
<path fill-rule="evenodd" clip-rule="evenodd" d="M23.3 8.525L12.6 0.225C12.2 -0.075 11.6 -0.075 11.1 0.225L0.5 8.525C0.2 8.725 0 9.125 0 9.425V22.425C0 23.325 0.4 24.225 1 24.925C1.6 25.625 2.6 25.925 3.5 25.925H8.6C9.1 25.925 9.5 25.525 9.5 25.025V14.625C9.5 14.225 9.8 13.925 10.2 13.925H13.5C13.9 13.925 14.2 14.225 14.2 14.625V25.025C14.2 25.525 14.6 25.925 15.1 25.925H20.2C21.1 25.925 22.1 25.525 22.7 24.925C23.4 24.225 23.7 23.325 23.7 22.425V9.425C23.8 9.125 23.6 8.725 23.3 8.525ZM21.4 22.425C21.4 22.725 21.3 23.025 21.1 23.225C20.9 23.425 20.6 23.525 20.3 23.525C20.3 23.525 18.8 23.525 16.7 23.525V12.725C16.7 12.025 16.2 11.525 15.5 11.525H8.3C7.6 11.525 7.1 12.025 7.1 12.725V23.625C5.1 23.625 3.5 23.625 3.5 23.625C3.2 23.625 2.9 23.525 2.7 23.325C2.5 23.125 2.4 22.825 2.4 22.525V10.525C2.4 10.225 2.5 9.925 2.8 9.725L11.4 3.125C11.7 2.825 12.2 2.825 12.6 3.125L21 9.725C21.2 9.925 21.4 10.225 21.4 10.525V22.425Z" fill="#00BFB2"/>
</svg>
