<svg width="84" height="84" viewBox="0 0 84 84" fill="none" xmlns="http://www.w3.org/2000/svg">
<path d="M43.8326 54.5397C49.6351 54.5397 54.339 49.8358 54.339 44.0333C54.339 38.2307 49.6351 33.5269 43.8326 33.5269C38.03 33.5269 33.3261 38.2307 33.3261 44.0333C33.3261 49.8358 38.03 54.5397 43.8326 54.5397Z" fill="#00BFB2"/>
<path d="M71.1192 38.7299H52.6995L52.3983 38.2949C50.4409 35.4675 47.2288 33.7945 43.8158 33.7945C40.3862 33.7945 37.174 35.4843 35.2334 38.2949L34.9322 38.7299H16.546L16.4456 38.7131C14.3878 38.3283 13.7353 36.3709 13.6851 35.4006V35.3504C13.6851 28.1063 16.9809 22.0333 23.238 17.7839C28.6919 14.0699 36.0029 12.0288 43.8326 12.0288C51.6622 12.0288 58.9732 14.0699 64.4272 17.7839C70.6675 22.0333 73.98 28.1063 73.98 35.3504V35.4006C73.9298 36.3709 73.2774 38.3283 71.2196 38.7131L71.1192 38.7299Z" fill="#F8BD47"/>
<path d="M39.901 44.0334C39.4159 44.0334 39.0143 43.6319 39.0143 43.1467C39.0143 41.0387 40.7208 39.3323 42.8288 39.3323C43.314 39.3323 43.7155 39.7338 43.7155 40.219C43.7155 40.7041 43.314 41.1057 42.8288 41.1057C41.6911 41.1057 40.771 42.0258 40.771 43.1634C40.7877 43.6319 40.3862 44.0334 39.901 44.0334Z" fill="white"/>
<path d="M43.8326 37.9269C47.2288 37.9269 49.9892 40.6874 49.9892 44.0836C49.9892 47.4798 47.2288 50.2402 43.8326 50.2402C40.4364 50.2402 37.6759 47.4798 37.6759 44.0836C37.6759 40.6874 40.4364 37.9269 43.8326 37.9269ZM43.8326 35.8691C39.2987 35.8691 35.6181 39.5497 35.6181 44.0836C35.6181 48.6174 39.2987 52.298 43.8326 52.298C48.3664 52.298 52.047 48.6174 52.047 44.0836C52.0303 39.533 48.3664 35.8691 43.8326 35.8691Z" fill="white"/>
<path d="M59.1907 28.5246C60.0315 28.5246 60.7131 27.843 60.7131 27.0022C60.7131 26.1613 60.0315 25.4797 59.1907 25.4797C58.3499 25.4797 57.6683 26.1613 57.6683 27.0022C57.6683 27.843 58.3499 28.5246 59.1907 28.5246Z" fill="white"/>
<path d="M71.1359 50.2903C72.2736 50.2903 73.2774 51.0599 73.5618 52.164C74.0804 54.1884 74.0469 57.5176 72.2401 60.2112C70.7846 62.4028 68.4591 63.7579 65.3641 64.2096C58.5884 65.2134 51.0767 65.7153 43.6151 65.7153C36.1535 65.7153 28.7756 65.2134 22.2509 64.2096C19.1558 63.7245 16.8304 62.3693 15.3749 60.161C13.6015 57.4842 13.568 54.1716 14.0699 52.164C14.3543 51.0599 15.3414 50.2903 16.4958 50.2903H35.3672L35.6683 50.6751C37.6592 53.1176 40.6204 54.523 43.7657 54.523C46.9611 54.523 50.0394 53.0842 51.9968 50.6751L52.298 50.2903" fill="#F8BD47"/>
<path d="M33.6775 44.0836C33.6775 43.3307 33.7611 42.5779 33.9451 41.8417L34.1292 41.0387C34.1292 41.0387 34.1292 41.022 34.1124 41.022H20.1931C18.0851 41.022 16.4958 42.4608 16.479 44.3847C16.4623 46.2752 18.0851 47.8144 19.9756 47.8144H34.3634C34.3634 47.8144 34.3801 47.8144 34.3801 47.7976L34.1124 46.9444C33.8113 46.0242 33.6775 45.0539 33.6775 44.0836Z" fill="#7A5041"/>
<path d="M68.0241 41.022H53.536L53.7367 41.8417C53.904 42.5779 54.0044 43.3307 54.0044 44.0836C54.0044 45.0706 53.8538 46.0242 53.5694 46.9611L53.3018 47.8144H68.0409C69.9146 47.8144 71.4371 46.2919 71.4371 44.4182C71.4203 42.5444 69.8979 41.022 68.0241 41.022Z" fill="#7A5041"/>
</svg>
