<svg width="25" height="25" viewBox="0 0 25 25" fill="none" xmlns="http://www.w3.org/2000/svg">
<path d="M12.5 0C5.6075 0 0 4.48625 0 10C0 13.635 2.37125 16.8937 6.25 18.6675V25L12.925 19.995C19.6213 19.815 25 15.4 25 10C25 4.48625 19.3925 0 12.5 0ZM12.5 17.1451H12.037L8.7963 19.462L8.75 16.67L7.87037 16.2184C4.51037 14.9246 2.77778 12.82 2.77778 10C2.77778 5.86375 6.98625 2.78029 12.5 2.78029C18.0138 2.78029 22.2222 5.86375 22.2222 10C22.2222 14.1363 18.0138 17.1451 12.5 17.1451Z" fill="#00BFB2"/>
</svg>
