<svg width="315" height="53" viewBox="0 0 315 53" fill="none" xmlns="http://www.w3.org/2000/svg">
<rect width="315" height="53" rx="10" fill="#00BFB2"/>
<path d="M140.688 32V19.31H146.196C147.588 19.31 148.662 19.658 149.418 20.354C150.174 21.05 150.552 22.022 150.552 23.27C150.552 24.518 150.174 25.496 149.418 26.204C148.662 26.9 147.588 27.248 146.196 27.248H142.992V32H140.688ZM142.992 25.43H145.836C147.492 25.43 148.32 24.71 148.32 23.27C148.32 21.842 147.492 21.128 145.836 21.128H142.992V25.43ZM155.771 32.18C154.859 32.18 154.067 31.994 153.395 31.622C152.723 31.25 152.201 30.722 151.829 30.038C151.457 29.342 151.271 28.526 151.271 27.59C151.271 26.654 151.457 25.844 151.829 25.16C152.201 24.476 152.723 23.948 153.395 23.576C154.067 23.204 154.859 23.018 155.771 23.018C156.683 23.018 157.475 23.204 158.147 23.576C158.819 23.948 159.341 24.476 159.713 25.16C160.085 25.844 160.271 26.654 160.271 27.59C160.271 28.526 160.085 29.342 159.713 30.038C159.341 30.722 158.819 31.25 158.147 31.622C157.475 31.994 156.683 32.18 155.771 32.18ZM155.771 30.47C156.443 30.47 156.983 30.23 157.391 29.75C157.799 29.258 158.003 28.538 158.003 27.59C158.003 26.63 157.799 25.916 157.391 25.448C156.983 24.968 156.443 24.728 155.771 24.728C155.099 24.728 154.559 24.968 154.151 25.448C153.743 25.916 153.539 26.63 153.539 27.59C153.539 28.538 153.743 29.258 154.151 29.75C154.559 30.23 155.099 30.47 155.771 30.47ZM165.35 32.18C164.606 32.18 163.91 32.09 163.262 31.91C162.614 31.73 162.074 31.472 161.642 31.136L162.218 29.66C162.662 29.96 163.16 30.194 163.712 30.362C164.264 30.518 164.816 30.596 165.368 30.596C165.944 30.596 166.37 30.5 166.646 30.308C166.934 30.104 167.078 29.84 167.078 29.516C167.078 29.012 166.706 28.688 165.962 28.544L164.162 28.202C162.638 27.914 161.876 27.122 161.876 25.826C161.876 25.25 162.032 24.752 162.344 24.332C162.668 23.912 163.112 23.588 163.676 23.36C164.24 23.132 164.888 23.018 165.62 23.018C166.244 23.018 166.844 23.108 167.42 23.288C167.996 23.456 168.488 23.714 168.896 24.062L168.284 25.538C167.936 25.25 167.516 25.022 167.024 24.854C166.544 24.686 166.082 24.602 165.638 24.602C165.05 24.602 164.612 24.704 164.324 24.908C164.048 25.112 163.91 25.382 163.91 25.718C163.91 26.246 164.252 26.57 164.936 26.69L166.736 27.032C167.516 27.176 168.104 27.44 168.5 27.824C168.908 28.208 169.112 28.724 169.112 29.372C169.112 30.248 168.77 30.938 168.086 31.442C167.402 31.934 166.49 32.18 165.35 32.18ZM174.861 32.18C172.533 32.18 171.369 31.028 171.369 28.724V24.89H169.677V23.198H171.369V20.57H173.619V23.198H176.283V24.89H173.619V28.598C173.619 29.174 173.745 29.606 173.997 29.894C174.249 30.182 174.657 30.326 175.221 30.326C175.389 30.326 175.563 30.308 175.743 30.272C175.923 30.224 176.109 30.176 176.301 30.128L176.643 31.784C176.427 31.904 176.151 32 175.815 32.072C175.491 32.144 175.173 32.18 174.861 32.18Z" fill="white"/>
</svg>
