<svg width="78" height="79" viewBox="0 0 78 79" fill="none" xmlns="http://www.w3.org/2000/svg">
<path d="M15.1761 0H61.8712C70.2541 0 77.0473 6.90707 77.0473 15.4304V62.9082C77.0473 71.4316 70.2541 78.3386 61.8712 78.3386H15.1761C6.79321 78.3386 3.90709e-06 71.4316 3.90709e-06 62.9082V15.4304C-0.00594983 6.90707 6.79321 0 15.1761 0Z" fill="#142328"/>
<path d="M36.925 52.4963C36.9488 50.2504 35.1805 48.4041 32.9717 48.3798C30.7629 48.3556 28.947 50.1535 28.9232 52.3994C28.8993 54.6453 30.6676 56.4916 32.8764 56.5158C32.8943 56.5158 32.9062 56.5158 32.9241 56.5158C35.1031 56.5461 36.8952 54.7724 36.925 52.5568C36.925 52.5326 36.925 52.5144 36.925 52.4963ZM40.1936 45.9221V59.1128H36.8654V57.9263C35.6807 58.9009 34.1982 59.4276 32.6681 59.4094C28.9113 59.5123 25.7796 56.4976 25.6784 52.6718C25.5772 48.852 28.5421 45.6679 32.3049 45.565C32.424 45.5589 32.549 45.5589 32.6681 45.565C34.2041 45.5589 35.6926 46.0977 36.8833 47.0904V45.9161H40.1936V45.9221ZM51.2437 56.1042H48.7431C47.9811 56.1042 47.4869 55.7652 47.4869 55.069V48.8944H51.2437V45.9221H47.4988V42.1629H44.135V45.9221H41.6106V48.9065H44.1409V55.9165C44.1409 57.6841 45.3972 59.0886 47.6536 59.0886H51.2556L51.2437 56.1042ZM58.8288 59.4276C62.6749 59.4276 64.842 57.5994 64.842 55.069C64.842 53.2711 63.562 51.9272 60.8709 51.3521L58.031 50.771C56.3818 50.4683 55.8638 50.1596 55.8638 49.5542C55.8638 48.7552 56.6557 48.2709 58.1203 48.2709C59.704 48.2709 60.8709 48.7007 61.2043 50.1596H64.5325C64.3479 47.4173 62.3593 45.5892 58.3287 45.5892C54.8517 45.5892 52.4047 47.0239 52.4047 49.7964C52.4047 51.7153 53.7502 52.9684 56.6497 53.5798L59.823 54.3123C61.0733 54.5545 61.4067 54.8874 61.4067 55.408C61.4067 56.2313 60.4482 56.7519 58.93 56.7519C57.0069 56.7519 55.9055 56.3282 55.4828 54.8632H52.1189C52.619 57.5994 54.6731 59.4276 58.8288 59.4276ZM12.1932 41.2488H24.7436V44.2937H15.5808V48.6583H24.4995V51.5882H15.5808V55.9831H24.7436V59.0341H12.1932V41.2488Z" fill="#06C167"/>
<path d="M64.5563 25.8001V23.409H63.6632C62.3951 23.3545 61.1984 24.0083 60.5375 25.1161V23.5119H57.9834V36.4967H60.5613V29.1114C60.5613 27.1017 61.7878 25.8001 63.4727 25.8001H64.5563ZM46.0283 28.8269C46.4629 26.5992 48.5884 25.1464 50.7793 25.5883C52.3868 25.9091 53.6431 27.1925 53.9646 28.8269H46.0283ZM50.0649 23.2577C46.4033 23.2274 43.4086 26.2178 43.3788 29.9408C43.3788 29.965 43.3788 29.9831 43.3788 30.0074C43.3788 33.8816 46.3914 36.7813 50.2971 36.7813C52.5 36.8236 54.5838 35.7945 55.9115 34.0087L54.0479 32.6285C53.1846 33.8574 51.7855 34.5717 50.303 34.5414C48.1597 34.5717 46.32 32.9978 45.9806 30.8488H56.5366V30.0013C56.5366 26.1331 53.786 23.2577 50.0292 23.2577H50.0649ZM35.3413 34.5414C32.8943 34.5233 30.9177 32.4954 30.9355 30.0013C30.9534 27.5072 32.9479 25.5035 35.4008 25.5217C37.8359 25.5398 39.8066 27.5496 39.8066 30.0316C39.8006 32.5256 37.8061 34.5475 35.3532 34.5414C35.3472 34.5414 35.3413 34.5414 35.3413 34.5414ZM28.3457 36.4967H30.8998V34.8623C32.1322 36.1154 33.8052 36.8176 35.5437 36.8176C39.2291 36.9205 42.3012 33.9603 42.3965 30.2132C42.4977 26.466 39.5863 23.3424 35.9009 23.2456C35.7819 23.2395 35.6628 23.2395 35.5437 23.2456C33.8112 23.2456 32.1441 23.9478 30.9236 25.2009V18.6691H28.3457V36.4967ZM19.2603 34.4083C21.737 34.4083 23.6482 32.4954 23.6482 29.6744V18.6691H26.3273V36.4967H23.672V34.8381C22.4276 36.1154 20.7249 36.8176 18.9566 36.7934C15.1105 36.7934 12.1932 34.0148 12.1932 29.8136V18.6691H14.8962V29.6744C14.8962 32.5498 16.7835 34.4083 19.29 34.4083" fill="#F6F0EA"/>
</svg>
