<svg width="25" height="23" viewBox="0 0 25 23" fill="none" xmlns="http://www.w3.org/2000/svg">
<path d="M11.5279 1.66464C11.8639 0.778453 13.1353 0.778453 13.4724 1.66464L15.6458 7.68525C15.7216 7.88137 15.8551 8.04989 16.0287 8.16855C16.2023 8.28722 16.4078 8.35044 16.618 8.34989H21.9592C22.9461 8.34989 23.3766 9.57837 22.6007 10.18L18.7998 13.5998C18.6296 13.7307 18.5052 13.9122 18.4444 14.1181C18.3837 14.3241 18.3898 14.5441 18.4618 14.7464L19.8498 20.6295C20.1879 21.5744 19.0938 22.3861 18.2665 21.8044L13.1038 18.5284C12.9271 18.4042 12.7162 18.3375 12.5001 18.3375C12.284 18.3375 12.0732 18.4042 11.8964 18.5284L6.73378 21.8044C5.90747 22.3861 4.81237 21.5734 5.15045 20.6295L6.53849 14.7464C6.6105 14.5441 6.61656 14.3241 6.55583 14.1181C6.49509 13.9122 6.37066 13.7307 6.20041 13.5998L2.39958 10.18C1.62261 9.57837 2.05519 8.34989 3.04005 8.34989H8.38116C8.59146 8.35059 8.79701 8.28742 8.97062 8.16874C9.14423 8.05006 9.27772 7.88146 9.35342 7.68525L11.5268 1.66464H11.5279Z" fill="white" stroke="white" stroke-width="2" stroke-linecap="round" stroke-linejoin="round"/>
</svg>
