<svg width="25" height="23" viewBox="0 0 25 23" fill="none" xmlns="http://www.w3.org/2000/svg">
<path d="M13.2144 1.66464C12.8682 0.778453 11.5623 0.778453 11.2172 1.66464H11.2161L8.9839 7.68525C8.90615 7.88146 8.76905 8.05006 8.59074 8.16874C8.41242 8.28742 7.98531 8.34989 7.98531 8.34989H2.49957C1.48805 8.34989 1.04376 9.57837 1.84176 10.18L5.74551 13.5998C5.92038 13.7307 6.04817 13.9122 6.11055 14.1181C6.17294 14.3241 6.1667 14.5441 6.09275 14.7464L4.66713 20.6295C4.31989 21.5734 5.44464 22.3861 6.29333 21.8044L11.5957 18.5284C11.7773 18.4042 11.9939 18.3375 12.2158 18.3375C12.4378 18.3375 12.6543 18.4042 12.8359 18.5284L18.1383 21.8044C18.9881 22.3861 20.1117 21.5744 19.7645 20.6295L18.3389 14.7464C18.2649 14.5441 18.2587 14.3241 18.3211 14.1181C18.3835 13.9122 18.5112 13.7307 18.6861 13.5998L22.5899 10.18C23.3868 9.57837 22.9446 8.34989 21.931 8.34989H16.4452C16.2293 8.35044 16.0182 8.28721 15.8399 8.16855C15.6617 8.04989 15.5245 7.88137 15.4466 7.68525L13.2144 1.66464Z" stroke="white" stroke-width="2" stroke-linecap="round" stroke-linejoin="round"/>
<path d="M7.90196 8.56L12.2157 1V18.22L4.45098 22L5.7451 13.18L1 8.98L7.90196 8.56Z" fill="white"/>
</svg>
