<svg width="110" height="21" viewBox="0 0 110 21" fill="none" xmlns="http://www.w3.org/2000/svg">
<path d="M8.09257 10.6231C8.85948 10.5743 9.60165 10.5255 10.3191 10.4767C11.0365 10.4279 11.7787 10.3791 12.5209 10.3059C12.6446 10.2571 12.7683 10.3059 12.8672 10.4035C12.9662 10.5011 13.0404 10.6475 13.0651 10.7939C13.0899 10.9404 13.0404 11.1112 12.9167 11.2576C12.793 11.404 12.5703 11.5016 12.224 11.5504C11.9024 11.5992 11.5313 11.648 11.1107 11.6724C10.6902 11.7212 10.2449 11.77 9.79956 11.7944C9.35426 11.8432 8.90896 11.8676 8.46365 11.9164C8.01835 11.9652 7.59778 11.9896 7.2267 12.014C6.92983 12.3312 6.6577 12.7217 6.38557 13.1853C6.11344 13.6489 5.86605 14.137 5.61866 14.6494C5.37127 15.1618 5.17335 15.6743 4.97544 16.2111C4.77753 16.7479 4.62909 17.2116 4.5054 17.6508C4.3817 18.09 4.28275 18.456 4.20853 18.7733C4.13431 19.0905 4.10957 19.2857 4.13431 19.3589C4.13431 19.4077 4.10957 19.4565 4.06009 19.4809C4.01062 19.5053 3.96114 19.5053 3.91166 19.5053C3.83744 19.5053 3.78796 19.5053 3.71375 19.4809C3.63953 19.4565 3.59005 19.4321 3.54057 19.4077C3.14475 19.2125 2.82314 18.9929 2.57575 18.7245C2.32836 18.456 2.2294 18.09 2.2294 17.602C2.27888 17.0896 2.3531 16.6015 2.47679 16.1379C2.60049 15.6743 2.72418 15.235 2.89736 14.8202C3.04579 14.4054 3.2437 13.9906 3.44162 13.5757C3.63953 13.1609 3.83744 12.7705 4.06009 12.3556C3.56531 12.3068 3.09527 12.258 2.62523 12.1848C2.15518 12.1116 1.73462 11.9896 1.31405 11.7944C1.11614 11.6968 0.942968 11.5748 0.844012 11.4284C0.745055 11.282 0.695577 11.1356 0.670838 11.0136C0.646099 10.8671 0.646099 10.7451 0.695577 10.6475C0.720316 10.5499 0.794533 10.4767 0.844012 10.4523C1.14088 10.3303 1.46249 10.1839 1.80884 10.0619C2.15518 9.91549 2.47679 9.76908 2.77366 9.59827C3.09527 9.42746 3.3674 9.25664 3.63953 9.06143C3.88692 8.86622 4.10957 8.671 4.25801 8.45139C4.06009 8.37818 3.86218 8.32938 3.71375 8.25618C3.56531 8.18297 3.41688 8.13417 3.2437 8.08537L1.28932 7.35332C1.04192 7.23131 0.819273 7.0849 0.62136 6.88969C0.423447 6.69448 0.250273 6.49926 0.126578 6.27965C-0.096074 5.93803 -0.0218569 5.69401 0.32449 5.4988C0.596621 5.32799 0.918229 5.20598 1.28932 5.13277C4.55488 4.52273 7.7957 4.0103 10.9623 3.61988C14.1536 3.22945 17.345 2.91223 20.5363 2.64381C20.8579 2.57061 21.0806 2.59501 21.2538 2.66821C21.4022 2.76582 21.5506 2.91223 21.6496 3.15624C21.6743 3.30265 21.7238 3.42466 21.7485 3.54667C21.798 3.66868 21.8228 3.79068 21.8475 3.93709C21.897 4.0835 21.897 4.20551 21.8475 4.30312C21.798 4.40072 21.7238 4.44953 21.6249 4.49833C21.5259 4.54713 21.4269 4.57154 21.2785 4.59594C21.1548 4.62034 21.0311 4.62034 20.9322 4.62034C20.2642 4.64474 19.5468 4.66914 18.7799 4.66914C18.0129 4.66914 17.246 4.69354 16.5039 4.74235C15.7617 4.79115 15.0443 4.86435 14.401 4.98636C13.7578 5.10837 13.2383 5.27918 12.8177 5.5232C11.9519 6.30405 11.086 7.1093 10.2696 7.96336C9.379 8.76861 8.66157 9.67147 8.09257 10.6231ZM2.87262 10.7451C3.14475 10.7451 3.41688 10.7451 3.68901 10.7695C3.96114 10.7939 4.20853 10.7695 4.43118 10.7451C4.67857 10.7207 4.87648 10.6475 5.09914 10.5743C5.29705 10.4767 5.49496 10.3303 5.6434 10.1351C6.33609 9.20784 7.07826 8.32938 7.86992 7.49973C8.66157 6.67007 9.5027 5.86482 10.3933 5.08397C9.92326 5.10837 9.40374 5.13277 8.83474 5.18158C8.26574 5.23038 7.64726 5.30358 7.02879 5.37679C6.41031 5.44999 5.79183 5.5232 5.17335 5.62081C4.55488 5.71841 3.98588 5.79161 3.46636 5.88922C2.94683 5.98683 2.50153 6.08444 2.13044 6.18204C1.75936 6.27965 1.48723 6.35285 1.36353 6.42606C1.56144 6.57247 1.7841 6.67007 2.03149 6.71888C2.27888 6.84089 2.52627 6.91409 2.77366 7.0117C3.02105 7.0849 3.26844 7.18251 3.51583 7.30451C3.71375 7.40212 3.88692 7.49973 4.08483 7.59733C4.25801 7.69494 4.40644 7.81695 4.53014 7.96336C4.80227 8.25618 4.97544 8.5246 5.04966 8.74421C5.12388 8.96383 5.04966 9.18344 4.90122 9.40305C4.80227 9.52506 4.67857 9.64707 4.5054 9.76908C4.35696 9.89109 4.15905 10.0131 3.96114 10.1351C3.76322 10.2571 3.56531 10.3547 3.3674 10.4767C3.21896 10.5499 3.02105 10.6475 2.87262 10.7451Z" fill="white"/>
<path d="M21.2786 13.1852C21.0312 13.2828 20.8085 13.3804 20.5859 13.5024C20.3632 13.6244 20.1406 13.722 19.8932 13.7952C19.6953 13.8684 19.5221 13.9417 19.3489 14.0637C19.2005 14.1857 19.052 14.3321 18.9531 14.5517C18.483 15.5034 17.8151 16.3086 16.974 16.9675C16.5781 17.2603 16.1576 17.4311 15.7617 17.4799C15.3412 17.5287 14.9206 17.4067 14.4258 17.1139C13.7826 16.7234 13.3373 16.3086 13.1641 15.8694C12.9662 15.4546 12.9662 14.8689 13.1394 14.1369C13.362 13.2584 13.6589 12.4776 14.0547 11.7943C14.4258 11.1111 14.9206 10.4766 15.5143 9.84218C15.6628 9.67137 15.8607 9.54936 16.1081 9.42735C16.3555 9.32974 16.6029 9.23214 16.875 9.20774C17.1471 9.15893 17.4193 9.15894 17.6666 9.15894C17.9388 9.18334 18.1862 9.23214 18.3841 9.30534C18.8541 9.50056 19.2005 9.74457 19.3984 10.0374C19.5963 10.3302 19.7447 10.6474 19.7695 11.0135C19.8189 11.3795 19.7942 11.7455 19.72 12.1359C19.6458 12.5264 19.5716 12.9168 19.4973 13.3072C19.7695 13.234 20.0416 13.1364 20.3137 12.99C20.5859 12.8436 20.858 12.6972 21.0806 12.5752L21.2786 13.1852ZM14.8959 16.5526C15.5143 16.3818 16.0339 16.0402 16.4544 15.5522C16.875 15.0641 17.2708 14.5761 17.5924 14.0393C17.0234 14.0149 16.6523 13.9173 16.4544 13.722C16.2565 13.5268 16.0833 13.2828 15.9597 12.9656C15.7123 13.4536 15.4896 13.9905 15.2917 14.6249C15.0443 15.2837 14.9206 15.9182 14.8959 16.5526ZM18.0872 13.3804C18.1614 13.2584 18.2356 13.0632 18.3346 12.8436C18.4336 12.5996 18.5325 12.3555 18.6067 12.0627C18.681 11.7943 18.7552 11.5259 18.8046 11.2331C18.8541 10.9647 18.8541 10.7206 18.8294 10.501C18.8046 10.3058 18.7304 10.135 18.582 10.0374C18.4583 9.91538 18.2604 9.91539 17.9883 9.96419C18.013 10.0618 18.0377 10.1594 18.0872 10.2814C18.112 10.4034 18.1367 10.4766 18.0872 10.5742C18.0377 10.6962 17.9883 10.7938 17.8893 10.9159C17.8151 11.0379 17.7161 11.0867 17.6419 11.1111C17.444 11.1355 17.2956 11.2087 17.1719 11.2819C17.0482 11.3795 16.9492 11.4771 16.8503 11.5747C16.776 11.6967 16.7018 11.7943 16.6276 11.9407C16.5534 12.0627 16.4792 12.1847 16.405 12.3067C16.5039 12.5508 16.6276 12.7216 16.7018 12.868C16.8008 13.0144 16.8997 13.112 16.9987 13.1852C17.0976 13.2584 17.2461 13.3072 17.4193 13.3316C17.5924 13.3804 17.8151 13.3804 18.0872 13.3804Z" fill="white"/>
<path d="M28.5765 13.1852C28.3291 13.2828 28.1065 13.3804 27.8838 13.5024C27.6612 13.6244 27.4385 13.722 27.1911 13.7952C26.9932 13.8684 26.8201 13.9417 26.6469 14.0637C26.4984 14.1857 26.35 14.3321 26.2511 14.5517C25.781 15.5034 25.1131 16.3086 24.2719 16.9675C23.8761 17.2603 23.4555 17.4311 23.0597 17.4799C22.6391 17.5287 22.2186 17.4067 21.7238 17.1139C21.0806 16.7234 20.6353 16.3086 20.4621 15.8694C20.2642 15.4546 20.2642 14.8689 20.4374 14.1369C20.66 13.2584 20.9569 12.4776 21.3527 11.7943C21.7238 11.1111 22.2186 10.4766 22.8123 9.84218C22.9608 9.67137 23.1587 9.54936 23.4061 9.42735C23.6534 9.32974 23.9008 9.23214 24.173 9.20774C24.4451 9.15893 24.7172 9.15894 24.9646 9.15894C25.2368 9.18334 25.4841 9.23214 25.6821 9.30534C26.1521 9.50056 26.4984 9.74457 26.6964 10.0374C26.8943 10.3302 27.0427 10.6474 27.0674 11.0135C27.1169 11.3795 27.0922 11.7455 27.018 12.1359C26.9438 12.5264 26.8695 12.9168 26.7953 13.3072C27.0674 13.234 27.3396 13.1364 27.6117 12.99C27.8838 12.8436 28.156 12.6972 28.3786 12.5752L28.5765 13.1852ZM22.1691 16.5526C22.7876 16.3818 23.3071 16.0402 23.7277 15.5522C24.1482 15.0641 24.5441 14.5761 24.8657 14.0393C24.2967 14.0149 23.9256 13.9173 23.7277 13.722C23.5298 13.5268 23.3566 13.2828 23.2329 12.9656C22.9855 13.4536 22.7628 13.9905 22.5649 14.6249C22.3175 15.2837 22.1938 15.9182 22.1691 16.5526ZM25.3604 13.3804C25.4347 13.2584 25.5089 13.0632 25.6078 12.8436C25.7068 12.5996 25.8058 12.3555 25.88 12.0627C25.9542 11.7943 26.0284 11.5259 26.0779 11.2331C26.1274 10.9647 26.1274 10.7206 26.1026 10.501C26.0779 10.3058 26.0037 10.135 25.8552 10.0374C25.7315 9.91538 25.5336 9.91539 25.2615 9.96419C25.2862 10.0618 25.311 10.1594 25.3604 10.2814C25.3852 10.4034 25.4099 10.4766 25.3604 10.5742C25.311 10.6962 25.2615 10.7938 25.1625 10.9159C25.0883 11.0379 24.9894 11.0867 24.9151 11.1111C24.7172 11.1355 24.5688 11.2087 24.4451 11.2819C24.3214 11.3795 24.2224 11.4771 24.1235 11.5747C24.0493 11.6967 23.9751 11.7943 23.9008 11.9407C23.8266 12.0627 23.7524 12.1847 23.6782 12.3067C23.7771 12.5508 23.9008 12.7216 23.9751 12.868C24.074 13.0144 24.173 13.112 24.2719 13.1852C24.3709 13.2584 24.5193 13.3072 24.6925 13.3316C24.8904 13.3804 25.1131 13.3804 25.3604 13.3804Z" fill="white"/>
<path d="M37.73 13.0632C37.0867 14.2589 36.493 15.4301 35.924 16.6014C35.355 17.7727 34.7365 18.9196 34.0686 20.042C33.9201 20.2861 33.7222 20.4813 33.4748 20.6033C33.2274 20.7253 32.9553 20.7253 32.6337 20.6277C32.4605 20.5789 32.2874 20.5057 32.0894 20.4569C31.9163 20.3837 31.7431 20.3105 31.6194 20.2129C31.471 20.1152 31.3473 19.9932 31.2483 19.8468C31.1494 19.7004 31.0999 19.5296 31.0751 19.31C31.0504 19.0172 31.0504 18.6756 31.0751 18.2851C31.0999 17.8947 31.1246 17.5043 31.1988 17.1138C31.2483 16.7234 31.3225 16.333 31.3967 15.9426C31.471 15.5521 31.5452 15.1861 31.6441 14.8689C31.3967 15.1373 31.1246 15.4301 30.8772 15.6986C30.6051 15.9914 30.333 16.211 30.0856 16.4062C29.8134 16.6014 29.5413 16.699 29.2444 16.7234C28.9476 16.7478 28.6754 16.6746 28.3786 16.455C28.0322 16.1866 27.8591 15.8206 27.8343 15.3325C27.8096 14.3077 27.958 13.3804 28.2796 12.5019C28.6012 11.6235 29.1455 10.8182 29.9371 10.1106C30.3824 9.69576 30.8525 9.40294 31.372 9.30534C31.8915 9.18333 32.4358 9.30534 33.0295 9.64696C33.079 9.67136 33.1285 9.69576 33.1532 9.69576C33.178 9.72016 33.2274 9.69576 33.3017 9.67136C33.6975 8.8173 34.0686 8.01205 34.4397 7.2312C34.8107 6.45035 35.1571 5.7183 35.5282 5.03505C35.8993 4.35181 36.2951 3.69297 36.6909 3.05853C37.0867 2.42408 37.532 1.83845 37.9773 1.27721C38.1258 1.1064 38.2495 1.00879 38.3484 1.00879C38.4474 1.00879 38.6206 1.08199 38.8185 1.204C38.9916 1.32601 39.1401 1.39922 39.239 1.47242C39.338 1.54563 39.3875 1.61883 39.4122 1.71644C39.437 1.81404 39.4122 1.91165 39.3875 2.03366C39.338 2.15567 39.2638 2.30208 39.1896 2.49729C38.3979 4.08339 37.631 5.6451 36.9136 7.2068C36.1714 8.7685 35.5034 10.3546 34.885 11.9895C34.687 12.5507 34.4644 13.112 34.2417 13.7464C34.0191 14.3565 33.8212 14.9909 33.6233 15.6498C33.4254 16.2842 33.2522 16.943 33.1037 17.5531C32.9553 18.1875 32.8316 18.7976 32.7327 19.3588C32.7079 19.4808 32.7574 19.432 32.9306 19.2124C33.079 19.0172 33.2769 18.7 33.5243 18.3095C33.7717 17.9191 34.0686 17.4555 34.3654 16.9186C34.687 16.4062 34.9839 15.8694 35.3055 15.3325C35.6271 14.7957 35.924 14.2833 36.2209 13.8196C36.5177 13.3316 36.7404 12.9412 36.9383 12.6484L37.73 13.0632ZM29.5166 15.7718C31.2483 14.5273 32.3121 12.8924 32.7574 10.867C32.3616 10.9402 31.941 11.1355 31.5452 11.4771C31.1494 11.8187 30.7783 12.2335 30.4814 12.6972C30.1845 13.1608 29.9124 13.6732 29.7392 14.2101C29.5661 14.7713 29.4918 15.2837 29.5166 15.7718Z" fill="white"/>
<path d="M42.2572 13.2097C41.9356 13.6001 41.614 14.0149 41.2429 14.4053C40.8966 14.8202 40.5502 15.1862 40.2286 15.5278C39.907 15.8694 39.6102 16.1867 39.338 16.4551C39.0659 16.7235 38.8433 16.9187 38.6948 17.0651C38.5216 17.2115 38.3485 17.3091 38.1258 17.3823C37.9032 17.4311 37.7053 17.4555 37.4826 17.4067C37.26 17.3823 37.062 17.3091 36.8394 17.1871C36.6167 17.0651 36.4436 16.9187 36.2704 16.7235C36.1714 16.6015 36.0972 16.4795 36.0477 16.3331C35.9983 16.1867 35.9488 16.0158 35.924 15.845C35.8746 15.479 35.8993 15.0886 36.023 14.6249C36.1467 14.1613 36.3199 13.6977 36.5425 13.2585C36.7652 12.7948 36.9878 12.38 37.2352 11.9652C37.4826 11.5503 37.7053 11.2331 37.9279 10.9647C38.1753 10.6963 38.4969 10.5743 38.868 10.5987C39.2391 10.6231 39.5607 10.7939 39.8081 11.1111C39.907 11.2819 39.9318 11.4527 39.8823 11.5991C39.7586 11.9896 39.5854 12.38 39.4122 12.746C39.2143 13.1365 39.0164 13.5269 38.8185 13.8929C38.6206 14.2833 38.4227 14.6738 38.2248 15.0398C38.0516 15.4302 37.9032 15.8206 37.8289 16.1867C38.2 16.0402 38.5464 15.8206 38.8927 15.5766C39.2391 15.3082 39.5607 15.0154 39.8823 14.6982C40.2039 14.3565 40.5255 14.0149 40.8224 13.6489C41.1192 13.2829 41.4161 12.9412 41.713 12.5996L42.2572 13.2097ZM39.0659 9.20779C39.0659 9.01258 39.0906 8.76856 39.1401 8.47574C39.1896 8.20732 39.2638 7.93891 39.3628 7.71929C39.4617 7.49968 39.6102 7.32887 39.7833 7.18246C39.9565 7.06045 40.2039 7.06045 40.476 7.15806C40.7482 7.28006 40.9461 7.37767 41.0945 7.47527C41.2429 7.57288 41.3419 7.69489 41.3914 7.8169C41.4409 7.93891 41.4409 8.06092 41.3914 8.23173C41.3419 8.37814 41.2677 8.57335 41.1192 8.79296C41.045 8.91497 40.9956 8.98818 40.9708 9.06138C40.9461 9.13458 40.8966 9.18339 40.8719 9.25659C40.8471 9.3298 40.7976 9.3786 40.7729 9.45181C40.7234 9.52501 40.6739 9.59822 40.6245 9.72023C40.5008 9.93984 40.4266 10.0618 40.3276 10.0863C40.2534 10.1107 40.0802 10.0618 39.8081 9.93984C39.6349 9.86663 39.4617 9.79343 39.2886 9.72023C39.1401 9.64702 39.0659 9.45181 39.0659 9.20779Z" fill="white"/>
<path d="M49.9017 13.2097C49.1595 13.8929 48.4173 14.5274 47.6257 15.1374C46.834 15.7475 46.0176 16.2843 45.127 16.7479C44.1869 17.236 43.2469 17.2116 42.3068 16.6747C41.9357 16.4307 41.6636 16.1623 41.4409 15.8695C41.243 15.5767 41.144 15.2106 41.1688 14.7714C41.243 13.7465 41.4904 12.7949 41.9109 11.9408C42.3315 11.0868 42.9747 10.3547 43.8406 9.74467C44.1869 9.50066 44.5086 9.35425 44.8302 9.32985C45.1518 9.30544 45.4734 9.32984 45.795 9.42745C46.1166 9.52506 46.4135 9.67147 46.7103 9.89108C47.0072 10.0863 47.2546 10.3059 47.502 10.5255C48.071 11.038 48.1205 11.5992 47.6752 12.1848C47.0567 13.0145 46.2403 13.5757 45.2755 13.9173C44.9044 14.0638 44.5333 14.0638 44.1869 13.9417C43.8406 13.8197 43.4943 13.6977 43.1726 13.5757C42.9747 13.8929 42.8263 14.2346 42.7273 14.5518C42.6284 14.869 42.5789 15.2106 42.5789 15.5523C42.5789 15.8695 42.6284 16.0891 42.7521 16.1867C42.8758 16.3087 43.0984 16.3087 43.42 16.2599C43.989 16.1135 44.5333 15.8939 45.0528 15.6255C45.5723 15.357 46.0671 15.0642 46.5372 14.7226C47.0072 14.4054 47.4772 14.0638 47.9226 13.6977C48.3679 13.3317 48.8132 13.0145 49.2832 12.6973L49.9017 13.2097ZM46.1166 10.5499C45.9187 10.6231 45.696 10.7451 45.4734 10.916C45.226 11.0868 45.0033 11.3064 44.7559 11.526C44.5086 11.7456 44.3106 11.9896 44.1127 12.2092C43.9148 12.4289 43.7664 12.6485 43.6674 12.8193C43.9148 12.8437 44.1869 12.7949 44.4591 12.6729C44.7312 12.5509 44.9786 12.38 45.226 12.1848C45.4734 11.9896 45.6713 11.7456 45.8197 11.4528C45.9929 11.16 46.0919 10.8671 46.1166 10.5499Z" fill="white"/>
<path d="M53.2166 16.2355C53.2908 16.3575 53.365 16.4551 53.4393 16.5283C53.5135 16.6259 53.5877 16.7235 53.6619 16.8211C53.4145 16.9675 53.1177 17.1628 52.7466 17.4068C52.3755 17.6508 52.0044 17.9192 51.658 18.2364C51.3117 18.5292 51.0148 18.8465 50.7922 19.1637C50.5695 19.4809 50.4953 19.7981 50.5943 20.0909C51.6086 20.1397 52.6476 19.9933 53.7609 19.7005C54.8741 19.4077 55.9379 18.9929 57.0017 18.456C58.0407 17.9192 59.0303 17.3092 59.9456 16.6259C60.861 15.9427 61.6526 15.235 62.2959 14.503C62.568 14.1614 62.7906 13.8197 63.0133 13.4049C62.6917 13.2829 62.3206 13.2341 61.8753 13.2341C61.43 13.2341 61.0094 13.2341 60.6136 13.2829C59.3272 13.4293 58.0655 13.5513 56.8533 13.6733C55.641 13.7953 54.4536 13.9417 53.2414 14.0637C52.8208 14.0881 52.4497 14.0881 52.1034 14.0637C51.757 14.0393 51.4601 13.9661 51.1633 13.8685C50.8664 13.7709 50.619 13.6001 50.3716 13.3805C50.1242 13.1609 49.8768 12.8925 49.6294 12.5264C49.481 12.2336 49.4563 11.9652 49.5552 11.6724C49.6294 11.3796 49.7531 11.1356 49.9263 10.8915C50.52 10.1107 51.2622 9.37864 52.1776 8.69539C53.0929 8.01215 54.0577 7.40211 55.0968 6.81647C56.1358 6.25524 57.2243 5.7428 58.3623 5.27917C59.4756 4.81554 60.5641 4.44952 61.6032 4.1079C62.6422 3.79068 63.5823 3.52226 64.4729 3.32704C65.3388 3.13183 66.0562 3.00982 66.6252 2.98542C67.2684 2.93662 67.8127 3.08303 68.258 3.44905C68.4559 3.61986 68.6785 3.86388 68.8517 4.1323C69.0496 4.42512 69.1733 4.69353 69.2475 4.93755C69.297 5.20597 69.2228 5.49879 69.0002 5.79161C68.5054 6.37724 67.9116 6.91408 67.1942 7.42651C66.4768 7.93895 65.7346 8.40258 64.9677 8.8174C64.2008 9.23223 63.4586 9.62266 62.7164 9.93988C61.9743 10.2571 61.3558 10.5255 60.8363 10.7207C60.6631 10.7939 60.5146 10.8427 60.391 10.8671C60.2673 10.8915 60.1683 10.8915 60.0693 10.8671C59.9704 10.8427 59.8714 10.7695 59.7725 10.6719C59.6735 10.5743 59.5498 10.4523 59.3766 10.2815C60.0693 9.86667 60.7868 9.47625 61.4795 9.08582C62.1722 8.6954 62.8896 8.28057 63.5823 7.84134C64.275 7.40211 64.9429 6.96288 65.5862 6.47485C66.2294 5.98682 66.8479 5.44999 67.4416 4.83994C65.9573 5.03516 64.4729 5.35238 62.9886 5.79161C61.5042 6.23083 60.0693 6.79207 58.6592 7.45092C57.2491 8.10976 55.9379 8.86621 54.6762 9.72026C53.4145 10.5743 52.2765 11.5016 51.2127 12.4776C52.0291 12.5997 52.8455 12.6241 53.6619 12.5997C54.4783 12.5752 55.3194 12.502 56.1606 12.4044C57.0017 12.3068 57.8428 12.2336 58.6592 12.136C59.4756 12.0628 60.3167 12.014 61.1084 12.014C61.7021 12.0384 62.2464 12.136 62.7412 12.3312C63.2359 12.5264 63.5823 12.9169 63.8049 13.4537C63.8792 13.7221 63.8544 14.0149 63.7307 14.3078C63.5823 14.6006 63.4091 14.8934 63.1617 15.1618C62.568 15.8695 61.8011 16.5527 60.861 17.236C59.9209 17.9192 58.9313 18.5292 57.8676 19.0661C56.8038 19.6029 55.74 20.0665 54.6762 20.4082C53.6124 20.7498 52.6229 20.945 51.757 20.9938C51.4849 21.0182 51.2127 20.9694 50.9159 20.8718C50.619 20.7498 50.3716 20.6034 50.149 20.4082C49.9263 20.2129 49.7779 19.9933 49.6789 19.7249C49.58 19.4809 49.58 19.2125 49.7037 18.9685C49.8274 18.6757 50.0253 18.4072 50.2479 18.1144C50.4953 17.846 50.7674 17.5776 51.0891 17.3336C51.4107 17.0895 51.7323 16.8699 52.1034 16.6503C52.4744 16.6503 52.8455 16.4307 53.2166 16.2355Z" fill="white"/>
<path d="M78.1042 13.3317C77.9063 13.5025 77.6589 13.7221 77.3868 13.9905C77.0899 14.2589 76.8178 14.5518 76.4962 14.8446C76.1993 15.1374 75.8777 15.4058 75.5808 15.6498C75.2839 15.8939 75.0118 16.0891 74.7892 16.2111C74.2696 16.4795 73.7501 16.4551 73.2553 16.1623C72.7853 15.9183 72.5874 15.5522 72.6616 15.0642C72.7358 14.6006 72.81 14.1369 72.9337 13.7221C73.0574 13.3073 73.1564 12.8681 73.2553 12.4532C72.5132 12.8193 71.8205 13.2341 71.1773 13.6977C70.534 14.1613 69.9156 14.6494 69.3466 15.1618C68.7528 15.6742 68.1838 16.1867 67.6396 16.7479C67.0706 17.2847 66.5263 17.8216 65.9573 18.334C65.8336 18.456 65.6852 18.6024 65.5367 18.7244C65.3883 18.8708 65.2151 18.8953 65.0172 18.8464C64.7698 18.7732 64.5472 18.6512 64.2998 18.5292C64.0524 18.4072 63.8297 18.2608 63.6318 18.1144C63.5329 18.0656 63.4834 17.9436 63.4834 17.724C63.4834 17.5288 63.5081 17.3091 63.5576 17.0895C63.6071 16.8699 63.6566 16.6503 63.7308 16.4551C63.805 16.2599 63.8545 16.1135 63.8792 16.0647C64.2008 15.3326 64.5224 14.5762 64.844 13.8441C65.1657 13.1121 65.5367 12.38 65.9326 11.6724C66.5263 10.5987 67.1695 9.52503 67.8375 8.50017C68.5054 7.4753 69.1981 6.47483 69.9403 5.52317C70.6825 4.57151 71.4494 3.66865 72.2905 2.79019C73.1069 1.93613 73.9975 1.13088 74.9129 0.374433C75.4571 0.0572119 75.9024 -0.0647984 76.2488 0.0328081C76.5951 0.130414 76.9909 0.423235 77.4362 0.911267C77.5105 1.05768 77.461 1.17968 77.2878 1.27729C77.1146 1.3749 76.9909 1.4481 76.892 1.4969C75.8035 2.18015 74.7644 3.03421 73.7996 4.08348C72.8348 5.13275 71.8947 6.25522 71.0536 7.4753C70.1877 8.69538 69.396 9.93986 68.6786 11.2087C67.9612 12.4776 67.318 13.6733 66.749 14.7958C66.5758 15.1618 66.5016 15.3814 66.551 15.4546C66.6005 15.5278 66.7984 15.4302 67.1448 15.113C67.5406 14.7714 67.9364 14.4542 68.3817 14.1125C68.8023 13.7709 69.2476 13.4537 69.7176 13.1365C70.163 12.8193 70.633 12.5264 71.0783 12.258C71.5483 11.9896 71.9689 11.77 72.3895 11.5992C72.5626 11.526 72.7606 11.4772 72.9337 11.4772C73.1069 11.4528 73.3048 11.5016 73.5027 11.5992C73.8986 11.8188 74.1707 12.0384 74.3191 12.258C74.4676 12.4776 74.5418 12.7216 74.5418 12.9901C74.5418 13.2341 74.4923 13.5025 74.3933 13.7953C74.2944 14.0881 74.1707 14.381 74.0717 14.7226C74.047 14.8446 74.0223 14.9666 73.9975 15.0886C73.9728 15.2106 73.9233 15.3814 73.8986 15.5522C74.1707 15.4546 74.4676 15.2594 74.7892 15.0154C75.1108 14.7714 75.4571 14.4786 75.7787 14.1857C76.1003 13.8929 76.4219 13.6001 76.7188 13.3317C77.0157 13.0633 77.2878 12.8437 77.5105 12.6972L78.1042 13.3317Z" fill="white"/>
<path d="M84.1901 16.6748C83.8685 16.9676 83.6211 17.1872 83.4232 17.358C83.2252 17.5288 83.0768 17.6509 82.9531 17.7485C82.8294 17.8461 82.7552 17.8949 82.681 17.9437C82.6315 17.9681 82.582 17.9925 82.5326 18.0169C82.2852 18.0901 82.0378 18.1145 81.7904 18.0169C81.543 17.9437 81.3698 17.7973 81.1966 17.602C81.0482 17.4068 80.9245 17.1384 80.875 16.8212C80.8008 16.504 80.8256 16.138 80.9245 15.7231L80.1081 16.504C79.8112 16.7968 79.4402 16.992 79.0443 17.0896C78.6485 17.1628 78.2527 17.1628 77.9063 17.0652C77.5352 16.9676 77.2136 16.7724 76.9415 16.504C76.6694 16.2356 76.4962 15.8939 76.4467 15.4791C76.3973 15.0155 76.4715 14.5274 76.6694 14.015C76.8673 13.5026 77.1147 13.0145 77.4363 12.5509C77.7579 12.0873 78.1042 11.6481 78.4753 11.2332C78.8464 10.8184 79.2175 10.5012 79.5391 10.2572C79.8855 9.98875 80.1823 9.79354 80.4792 9.67153C80.7761 9.54952 81.0482 9.47632 81.3451 9.47632C81.6172 9.47632 81.8893 9.52512 82.1862 9.64713C82.4583 9.76914 82.7552 9.91555 83.0768 10.1352C83.2747 10.0376 83.4726 9.89114 83.6458 9.74473C83.8437 9.59832 84.0169 9.50072 84.2148 9.50072C84.4127 9.50072 84.6106 9.57392 84.8085 9.72033C85.0065 9.86674 85.2044 9.98875 85.427 10.1108C85.1796 10.6232 84.9322 11.16 84.6848 11.6725C84.4375 12.1849 84.1901 12.7217 83.9427 13.2586C83.72 13.7954 83.4974 14.3322 83.3242 14.8935C83.151 15.4547 83.0273 15.9915 82.9531 16.5528C83.6953 16.0159 84.3632 15.4303 84.9322 14.7715C85.526 14.137 86.095 13.4538 86.6392 12.7217L87.2825 13.0145C86.8124 13.7222 86.3424 14.381 85.7981 14.9911C85.3528 15.5279 84.7838 16.1136 84.1901 16.6748ZM82.7552 10.6964C82.6562 10.5256 82.5326 10.4524 82.4089 10.4768C82.2852 10.5012 82.1615 10.5256 82.0378 10.5988C81.1472 11.1844 80.405 11.8921 79.836 12.7217C79.2422 13.5758 78.8464 14.4786 78.6238 15.4303C78.9206 15.2839 79.2917 15.0399 79.6876 14.6983C80.0834 14.3322 80.4792 13.9418 80.8998 13.4782C81.2956 13.0145 81.6667 12.5509 81.9883 12.0629C82.3099 11.5505 82.582 11.0868 82.7552 10.6964Z" fill="white"/>
<path d="M96.8565 13.0876C96.5349 13.4049 96.3122 13.7221 96.0153 14.0637C95.8422 14.2589 95.4711 14.6249 95.1495 14.869C94.8279 15.113 94.5557 15.357 94.2589 15.5034C93.962 15.6498 93.6899 15.7718 93.4672 15.8206C93.2198 15.8694 92.9724 15.845 92.7745 15.7718C92.5519 15.6986 92.3787 15.601 92.255 15.4546C92.1313 15.3082 92.0571 15.1374 92.0076 14.9178C91.9829 14.6981 92.0076 14.4785 92.1313 14.2589C92.2797 13.8929 92.4529 13.5269 92.6508 13.2096C92.8487 12.868 93.0466 12.5508 93.2446 12.2092C93.4425 11.8676 93.6156 11.5503 93.7888 11.2087C93.962 10.8671 94.0857 10.5255 94.2094 10.1838C93.393 10.5255 92.6013 10.9647 91.8839 11.5015C91.1417 12.0628 90.4738 12.6728 89.8553 13.3805C89.2368 14.0637 88.6926 14.8201 88.1978 15.601C87.703 16.3819 87.3072 17.1627 86.9856 17.9192C86.7877 17.8948 86.5897 17.8459 86.3918 17.7483C86.1939 17.6507 86.0207 17.5043 85.8476 17.3579C85.6991 17.1871 85.5754 16.9919 85.5012 16.7723C85.427 16.5527 85.427 16.3086 85.5012 16.0402C85.6497 15.4302 85.7981 14.8202 85.996 14.2345C86.1939 13.6245 86.4166 13.0388 86.664 12.4532C86.9113 11.8676 87.2082 11.3307 87.5546 10.8183C87.9009 10.3059 88.272 9.84222 88.7173 9.4274C88.8905 9.25658 89.0636 9.13458 89.2368 9.11018C89.3853 9.08578 89.5584 9.08577 89.7069 9.15898C89.8553 9.23218 90.0285 9.30539 90.1769 9.4274C90.3253 9.5494 90.4738 9.67141 90.6222 9.81782L89.4842 11.7211C90.1027 11.2575 90.7212 10.8183 91.3396 10.3303C91.9334 9.86663 92.6261 9.4762 93.3683 9.18338C93.7641 9.01257 94.1352 8.98817 94.4568 9.06137C94.7784 9.13458 95.0753 9.32979 95.3721 9.59821C95.5206 9.74462 95.6195 9.89103 95.669 10.0374C95.7185 10.1838 95.7185 10.3547 95.6195 10.5499C95.2732 11.3795 94.8526 12.1604 94.3578 12.868C93.863 13.5757 93.4672 14.1369 93.0219 14.869C92.923 15.0642 93.1456 15.113 93.3188 15.0886C93.5662 15.0642 93.8878 15.0154 94.2589 14.7713C94.6299 14.5273 95.0258 14.2345 95.4711 13.8929C95.9164 13.5513 96.3617 13.2096 96.7822 12.8924L96.8565 13.0876Z" fill="white"/>
<path d="M96.04 14.7713C96.1142 13.7465 96.3616 12.7948 96.7822 11.9407C97.2027 11.0867 97.846 10.3546 98.7118 9.7446C99.0582 9.50058 99.3798 9.35417 99.7014 9.32977C100.023 9.30537 100.345 9.32977 100.666 9.42738C100.988 9.52498 101.285 9.6714 101.582 9.89101C101.878 10.0862 102.126 10.3058 102.373 10.5254C102.942 11.0379 102.992 11.5991 102.546 12.1848C101.928 13.0144 101.112 13.5757 100.147 13.9173C99.7756 14.0637 99.4045 14.0637 99.0582 13.9417C98.7118 13.8197 98.3655 13.6977 98.0439 13.5756C97.9696 13.7465 97.8707 13.9417 97.7717 14.1857C97.6728 14.4297 97.5738 14.6737 97.5243 14.9421C97.4501 15.1862 97.4254 15.4302 97.4501 15.6742C97.4501 15.8938 97.5243 16.0646 97.648 16.211C98.3407 16.0402 99.0829 15.7962 99.8251 15.479C100.592 15.1374 101.334 14.7469 102.052 14.2833C102.794 13.8197 103.486 13.3072 104.179 12.746C104.872 12.1848 105.466 11.5747 106.01 10.9403C106.554 10.3058 106.999 9.64699 107.346 8.96375C107.717 8.2805 107.94 7.57286 108.038 6.88961C108.063 6.6944 108.137 6.54799 108.261 6.45038C108.385 6.35278 108.607 6.40158 108.954 6.57239C109.473 6.98722 109.795 7.37764 109.919 7.79247C110.042 8.1829 110.018 8.59772 109.894 9.03695C109.622 9.93981 109.176 10.7451 108.558 11.5259C107.94 12.2824 107.247 12.99 106.455 13.6001C105.664 14.2101 104.822 14.7469 103.907 15.2106C103.016 15.6742 102.151 16.0158 101.334 16.3086C100.864 16.455 100.394 16.6015 99.8498 16.7235C99.3303 16.8455 98.8108 16.9187 98.316 16.9431C97.9944 16.9675 97.6975 16.9187 97.4254 16.8211C97.1533 16.6991 96.9059 16.5526 96.6832 16.3574C96.4853 16.1622 96.3121 15.9426 96.1884 15.6742C96.0647 15.357 96.0153 15.0642 96.04 14.7713ZM100.988 10.5499C100.79 10.6231 100.567 10.7451 100.345 10.9159C100.097 11.0867 99.8746 11.3063 99.6272 11.5259C99.3798 11.7455 99.1819 11.9895 98.984 12.2092C98.786 12.4288 98.6376 12.6484 98.5386 12.8192C98.786 12.8436 99.0582 12.7948 99.3303 12.6728C99.6024 12.5508 99.8498 12.38 100.097 12.1848C100.345 11.9895 100.543 11.7455 100.691 11.4527C100.864 11.1599 100.963 10.8671 100.988 10.5499Z" fill="white"/>
</svg>
