<svg width="323" height="61" viewBox="0 0 323 61" fill="none" xmlns="http://www.w3.org/2000/svg">
<g filter="url(#filter0_d_323_2503)">
<rect x="4" width="315" height="53" rx="10" fill="black"/>
<path d="M45.0571 30.924C44.7395 31.7275 44.3636 32.4672 43.9281 33.1472C43.3344 34.0743 42.8483 34.716 42.4737 35.0724C41.893 35.6573 41.2708 35.9568 40.6045 35.9739C40.1262 35.9739 39.5493 35.8248 38.8779 35.5224C38.2042 35.2214 37.5851 35.0724 37.019 35.0724C36.4254 35.0724 35.7886 35.2214 35.1076 35.5224C34.4255 35.8248 33.876 35.9824 33.4559 35.998C32.817 36.0278 32.1801 35.7197 31.5444 35.0724C31.1387 34.6848 30.6312 34.0204 30.0233 33.0791C29.371 32.0739 28.8347 30.9084 28.4146 29.5795C27.9647 28.1442 27.7391 26.7543 27.7391 25.4087C27.7391 23.8673 28.0432 22.5379 28.6523 21.4238C29.1311 20.529 29.7679 19.8231 30.565 19.3049C31.362 18.7867 32.2233 18.5227 33.1508 18.5058C33.6582 18.5058 34.3237 18.6777 35.1507 19.0156C35.9754 19.3546 36.5049 19.5265 36.7371 19.5265C36.9107 19.5265 37.4989 19.3255 38.4961 18.9247C39.4392 18.5531 40.2351 18.3992 40.8871 18.4598C42.6539 18.6159 43.9812 19.3788 44.864 20.753C43.2839 21.8016 42.5022 23.2703 42.5178 25.1544C42.532 26.622 43.0181 27.8432 43.9735 28.8129C44.4064 29.2629 44.8899 29.6107 45.4279 29.8578C45.3112 30.2283 45.1881 30.5832 45.0571 30.924ZM41.005 13.4601C41.005 14.6104 40.6213 15.6844 39.8565 16.6785C38.9336 17.8602 37.8173 18.5431 36.6067 18.4354C36.5913 18.2974 36.5823 18.1521 36.5823 17.9995C36.5823 16.8953 37.0212 15.7135 37.8007 14.7472C38.1898 14.258 38.6847 13.8512 39.2849 13.5267C39.8838 13.2071 40.4502 13.0303 40.983 13C40.9986 13.1538 41.005 13.3076 41.005 13.4601V13.4601Z" fill="white"/>
<path d="M78.9309 31.162C77.9349 31.162 77.0349 31.036 76.2309 30.784C75.4269 30.52 74.7309 30.142 74.1429 29.65L74.6649 28.462C75.2769 28.93 75.9189 29.278 76.5909 29.506C77.2629 29.734 78.0429 29.848 78.9309 29.848C80.0109 29.848 80.8089 29.65 81.3249 29.254C81.8529 28.846 82.1169 28.312 82.1169 27.652C82.1169 27.124 81.9249 26.704 81.5409 26.392C81.1689 26.08 80.5389 25.834 79.6509 25.654L77.7789 25.276C76.6509 25.036 75.8049 24.646 75.2409 24.106C74.6889 23.554 74.4129 22.822 74.4129 21.91C74.4129 21.154 74.6049 20.494 74.9889 19.93C75.3849 19.366 75.9309 18.928 76.6269 18.616C77.3229 18.304 78.1269 18.148 79.0389 18.148C79.8909 18.148 80.6829 18.286 81.4149 18.562C82.1469 18.826 82.7649 19.21 83.2689 19.714L82.7469 20.866C82.2069 20.374 81.6369 20.02 81.0369 19.804C80.4369 19.576 79.7649 19.462 79.0209 19.462C78.0729 19.462 77.3169 19.684 76.7529 20.128C76.1889 20.56 75.9069 21.136 75.9069 21.856C75.9069 22.432 76.0809 22.888 76.4289 23.224C76.7889 23.56 77.3709 23.806 78.1749 23.962L80.0469 24.358C81.2589 24.61 82.1529 24.994 82.7289 25.51C83.3169 26.014 83.6109 26.704 83.6109 27.58C83.6109 28.288 83.4189 28.912 83.0349 29.452C82.6629 29.992 82.1229 30.412 81.4149 30.712C80.7189 31.012 79.8909 31.162 78.9309 31.162ZM85.5231 20.074V18.436H87.3231V20.074H85.5231ZM85.7031 31V22.252H87.1611V31H85.7031ZM93.7567 34.402C93.0007 34.402 92.2867 34.3 91.6147 34.096C90.9547 33.904 90.3667 33.61 89.8507 33.214L90.3367 32.152C90.8767 32.536 91.4107 32.812 91.9387 32.98C92.4787 33.148 93.0607 33.232 93.6847 33.232C95.4127 33.232 96.2767 32.344 96.2767 30.568V29.02C96.0247 29.572 95.6287 30.01 95.0887 30.334C94.5607 30.646 93.9547 30.802 93.2707 30.802C92.4667 30.802 91.7707 30.616 91.1827 30.244C90.5947 29.872 90.1387 29.362 89.8147 28.714C89.5027 28.054 89.3467 27.292 89.3467 26.428C89.3467 25.564 89.5027 24.808 89.8147 24.16C90.1387 23.5 90.5947 22.99 91.1827 22.63C91.7707 22.27 92.4667 22.09 93.2707 22.09C93.9547 22.09 94.5607 22.246 95.0887 22.558C95.6287 22.87 96.0247 23.296 96.2767 23.836V22.252H97.6987V30.37C97.6987 31.714 97.3627 32.722 96.6907 33.394C96.0307 34.066 95.0527 34.402 93.7567 34.402ZM93.5407 29.614C94.3807 29.614 95.0467 29.326 95.5387 28.75C96.0307 28.174 96.2767 27.4 96.2767 26.428C96.2767 25.456 96.0307 24.688 95.5387 24.124C95.0467 23.548 94.3807 23.26 93.5407 23.26C92.7127 23.26 92.0527 23.548 91.5607 24.124C91.0687 24.688 90.8227 25.456 90.8227 26.428C90.8227 27.4 91.0687 28.174 91.5607 28.75C92.0527 29.326 92.7127 29.614 93.5407 29.614ZM100.434 31V22.252H101.856V23.746C102.144 23.194 102.552 22.78 103.08 22.504C103.608 22.228 104.202 22.09 104.862 22.09C106.938 22.09 107.976 23.242 107.976 25.546V31H106.518V25.636C106.518 24.82 106.356 24.226 106.032 23.854C105.72 23.47 105.216 23.278 104.52 23.278C103.716 23.278 103.074 23.53 102.594 24.034C102.126 24.526 101.892 25.186 101.892 26.014V31H100.434ZM120.489 31.162C118.821 31.162 117.555 30.724 116.691 29.848C115.827 28.96 115.395 27.67 115.395 25.978V18.31H116.871V25.906C116.871 28.534 118.077 29.848 120.489 29.848C122.877 29.848 124.071 28.534 124.071 25.906V18.31H125.547V25.978C125.547 27.67 125.115 28.96 124.251 29.848C123.399 30.724 122.145 31.162 120.489 31.162ZM128.383 34.24V22.252H129.805V23.818C130.069 23.278 130.459 22.858 130.975 22.558C131.503 22.246 132.115 22.09 132.811 22.09C133.591 22.09 134.269 22.276 134.845 22.648C135.433 23.008 135.883 23.53 136.195 24.214C136.519 24.886 136.681 25.69 136.681 26.626C136.681 27.55 136.519 28.354 136.195 29.038C135.883 29.71 135.433 30.232 134.845 30.604C134.269 30.976 133.591 31.162 132.811 31.162C132.139 31.162 131.539 31.012 131.011 30.712C130.483 30.412 130.093 29.998 129.841 29.47V34.24H128.383ZM132.505 29.992C133.321 29.992 133.975 29.704 134.467 29.128C134.959 28.54 135.205 27.706 135.205 26.626C135.205 25.534 134.959 24.7 134.467 24.124C133.975 23.548 133.321 23.26 132.505 23.26C131.689 23.26 131.035 23.548 130.543 24.124C130.051 24.7 129.805 25.534 129.805 26.626C129.805 27.706 130.051 28.54 130.543 29.128C131.035 29.704 131.689 29.992 132.505 29.992ZM145.822 31L142.564 22.252H144.094L146.56 29.29L149.116 22.252H150.358L152.878 29.308L155.38 22.252H156.838L153.562 31H152.176L149.71 24.214L147.226 31H145.822ZM158.455 20.074V18.436H160.255V20.074H158.455ZM158.635 31V22.252H160.093V31H158.635ZM166.328 31.162C165.296 31.162 164.522 30.892 164.006 30.352C163.49 29.8 163.232 29.008 163.232 27.976V23.386H161.522V22.252H163.232V19.57H164.69V22.252H167.462V23.386H164.69V27.832C164.69 28.516 164.834 29.038 165.122 29.398C165.41 29.746 165.878 29.92 166.526 29.92C166.718 29.92 166.91 29.896 167.102 29.848C167.294 29.8 167.468 29.752 167.624 29.704L167.876 30.82C167.72 30.904 167.492 30.982 167.192 31.054C166.892 31.126 166.604 31.162 166.328 31.162ZM169.111 31V18.31H170.569V23.692C170.857 23.164 171.259 22.768 171.775 22.504C172.303 22.228 172.891 22.09 173.539 22.09C175.615 22.09 176.653 23.242 176.653 25.546V31H175.195V25.636C175.195 24.82 175.033 24.226 174.709 23.854C174.397 23.47 173.893 23.278 173.197 23.278C172.393 23.278 171.751 23.53 171.271 24.034C170.803 24.526 170.569 25.186 170.569 26.014V31H169.111ZM182.939 31L188.537 18.31H189.797L195.395 31H193.865L192.461 27.76H185.855L184.469 31H182.939ZM189.149 20.038L186.395 26.518H191.939L189.185 20.038H189.149ZM197.078 34.24V22.252H198.5V23.818C198.764 23.278 199.154 22.858 199.67 22.558C200.198 22.246 200.81 22.09 201.506 22.09C202.286 22.09 202.964 22.276 203.54 22.648C204.128 23.008 204.578 23.53 204.89 24.214C205.214 24.886 205.376 25.69 205.376 26.626C205.376 27.55 205.214 28.354 204.89 29.038C204.578 29.71 204.128 30.232 203.54 30.604C202.964 30.976 202.286 31.162 201.506 31.162C200.834 31.162 200.234 31.012 199.706 30.712C199.178 30.412 198.788 29.998 198.536 29.47V34.24H197.078ZM201.2 29.992C202.016 29.992 202.67 29.704 203.162 29.128C203.654 28.54 203.9 27.706 203.9 26.626C203.9 25.534 203.654 24.7 203.162 24.124C202.67 23.548 202.016 23.26 201.2 23.26C200.384 23.26 199.73 23.548 199.238 24.124C198.746 24.7 198.5 25.534 198.5 26.626C198.5 27.706 198.746 28.54 199.238 29.128C199.73 29.704 200.384 29.992 201.2 29.992ZM207.572 34.24V22.252H208.994V23.818C209.258 23.278 209.648 22.858 210.164 22.558C210.692 22.246 211.304 22.09 212 22.09C212.78 22.09 213.458 22.276 214.034 22.648C214.622 23.008 215.072 23.53 215.384 24.214C215.708 24.886 215.87 25.69 215.87 26.626C215.87 27.55 215.708 28.354 215.384 29.038C215.072 29.71 214.622 30.232 214.034 30.604C213.458 30.976 212.78 31.162 212 31.162C211.328 31.162 210.728 31.012 210.2 30.712C209.672 30.412 209.282 29.998 209.03 29.47V34.24H207.572ZM211.694 29.992C212.51 29.992 213.164 29.704 213.656 29.128C214.148 28.54 214.394 27.706 214.394 26.626C214.394 25.534 214.148 24.7 213.656 24.124C213.164 23.548 212.51 23.26 211.694 23.26C210.878 23.26 210.224 23.548 209.732 24.124C209.24 24.7 208.994 25.534 208.994 26.626C208.994 27.706 209.24 28.54 209.732 29.128C210.224 29.704 210.878 29.992 211.694 29.992ZM220.748 31.162C219.86 31.162 219.188 30.904 218.732 30.388C218.288 29.86 218.066 29.098 218.066 28.102V18.31H219.524V27.994C219.524 29.278 220.034 29.92 221.054 29.92C221.354 29.92 221.624 29.884 221.864 29.812L221.828 31.036C221.456 31.12 221.096 31.162 220.748 31.162ZM227.247 31.162C225.867 31.162 224.775 30.76 223.971 29.956C223.167 29.14 222.765 28.036 222.765 26.644C222.765 25.744 222.945 24.952 223.305 24.268C223.665 23.572 224.157 23.038 224.781 22.666C225.417 22.282 226.149 22.09 226.977 22.09C228.165 22.09 229.095 22.474 229.767 23.242C230.439 23.998 230.775 25.042 230.775 26.374V26.932H224.187C224.235 27.928 224.523 28.69 225.051 29.218C225.579 29.734 226.311 29.992 227.247 29.992C227.775 29.992 228.279 29.914 228.759 29.758C229.239 29.59 229.695 29.32 230.127 28.948L230.631 29.974C230.235 30.346 229.731 30.64 229.119 30.856C228.507 31.06 227.883 31.162 227.247 31.162ZM227.013 23.17C226.185 23.17 225.531 23.428 225.051 23.944C224.571 24.46 224.289 25.138 224.205 25.978H229.515C229.479 25.09 229.245 24.4 228.813 23.908C228.393 23.416 227.793 23.17 227.013 23.17Z" fill="white"/>
</g>
<defs>
<filter id="filter0_d_323_2503" x="0" y="0" width="323" height="61" filterUnits="userSpaceOnUse" color-interpolation-filters="sRGB">
<feFlood flood-opacity="0" result="BackgroundImageFix"/>
<feColorMatrix in="SourceAlpha" type="matrix" values="0 0 0 0 0 0 0 0 0 0 0 0 0 0 0 0 0 0 127 0" result="hardAlpha"/>
<feOffset dy="4"/>
<feGaussianBlur stdDeviation="2"/>
<feComposite in2="hardAlpha" operator="out"/>
<feColorMatrix type="matrix" values="0 0 0 0 0 0 0 0 0 0 0 0 0 0 0 0 0 0 0.15 0"/>
<feBlend mode="normal" in2="BackgroundImageFix" result="effect1_dropShadow_323_2503"/>
<feBlend mode="normal" in="SourceGraphic" in2="effect1_dropShadow_323_2503" result="shape"/>
</filter>
</defs>
</svg>
