<svg width="27" height="27" viewBox="0 0 27 27" fill="none" xmlns="http://www.w3.org/2000/svg">
<path fill-rule="evenodd" clip-rule="evenodd" d="M13.8481 2.5715C7.93377 2.5715 3.13925 7.32048 3.13925 13.1786C3.13925 19.0368 7.93377 23.7858 13.8481 23.7858C19.7625 23.7858 24.557 19.0368 24.557 13.1786C24.557 7.32048 19.7625 2.5715 13.8481 2.5715ZM0.759506 13.1786C0.759506 6.01866 6.61948 0.214355 13.8481 0.214355C21.0768 0.214355 26.9367 6.01866 26.9367 13.1786C26.9367 20.3386 21.0768 26.1429 13.8481 26.1429C6.61948 26.1429 0.759506 20.3386 0.759506 13.1786Z" fill="#00BFB2"/>
<path fill-rule="evenodd" clip-rule="evenodd" d="M19.7346 7.34816C20.0532 7.66382 20.1645 8.13073 20.022 8.55423L17.4995 16.0499C17.381 16.4019 17.1022 16.678 16.7469 16.7953L9.17932 19.2939C8.75176 19.4351 8.28037 19.3249 7.96168 19.0092C7.643 18.6935 7.53172 18.2266 7.67424 17.8031L10.1968 10.3074C10.3152 9.95548 10.594 9.67932 10.9493 9.56201L18.5169 7.06344C18.9445 6.92227 19.4159 7.0325 19.7346 7.34816Z" fill="#00BFB2"/>
</svg>
