<svg width="323" height="61" viewBox="0 0 323 61" fill="none" xmlns="http://www.w3.org/2000/svg">
<g filter="url(#filter0_d_332_3124)">
<rect x="4" width="315" height="53" rx="10" fill="white"/>
<rect x="4.5" y="0.5" width="314" height="52" rx="9.5" stroke="#373737" stroke-opacity="0.5"/>
<path fill-rule="evenodd" clip-rule="evenodd" d="M46.4931 24.7615C46.4931 23.946 46.4263 23.1619 46.3022 22.4092H36.4131V26.8576H42.064C41.8206 28.2951 41.0808 29.513 39.9688 30.3285V33.214H43.3622C45.3476 31.2119 46.4931 28.2637 46.4931 24.7615Z" fill="#4285F4"/>
<path fill-rule="evenodd" clip-rule="evenodd" d="M36.413 35.9998C39.248 35.9998 41.6248 34.97 43.3621 33.2137L39.9686 30.3282C39.0284 31.0182 37.8257 31.4259 36.413 31.4259C33.6782 31.4259 31.3634 29.403 30.5377 26.6848H27.0298V29.6644C28.7575 33.4228 32.3084 35.9998 36.413 35.9998Z" fill="#34A853"/>
<path fill-rule="evenodd" clip-rule="evenodd" d="M30.5379 26.685C30.3279 25.995 30.2085 25.2579 30.2085 24.5C30.2085 23.742 30.3279 23.005 30.5379 22.315V19.3354H27.0299C26.3188 20.8879 25.9131 22.6443 25.9131 24.5C25.9131 26.3557 26.3188 28.112 27.0299 29.6645L30.5379 26.685Z" fill="#FBBC05"/>
<path fill-rule="evenodd" clip-rule="evenodd" d="M36.413 17.5739C37.9546 17.5739 39.3386 18.1541 40.4268 19.2936L43.4384 15.9952C41.62 14.1395 39.2432 13 36.413 13C32.3084 13 28.7575 15.577 27.0298 19.3355L30.5377 22.315C31.3634 19.5968 33.6782 17.5739 36.413 17.5739Z" fill="#EA4335"/>
<path d="M78.9309 31.162C77.9349 31.162 77.0349 31.036 76.2309 30.784C75.4269 30.52 74.7309 30.142 74.1429 29.65L74.6649 28.462C75.2769 28.93 75.9189 29.278 76.5909 29.506C77.2629 29.734 78.0429 29.848 78.9309 29.848C80.0109 29.848 80.8089 29.65 81.3249 29.254C81.8529 28.846 82.1169 28.312 82.1169 27.652C82.1169 27.124 81.9249 26.704 81.5409 26.392C81.1689 26.08 80.5389 25.834 79.6509 25.654L77.7789 25.276C76.6509 25.036 75.8049 24.646 75.2409 24.106C74.6889 23.554 74.4129 22.822 74.4129 21.91C74.4129 21.154 74.6049 20.494 74.9889 19.93C75.3849 19.366 75.9309 18.928 76.6269 18.616C77.3229 18.304 78.1269 18.148 79.0389 18.148C79.8909 18.148 80.6829 18.286 81.4149 18.562C82.1469 18.826 82.7649 19.21 83.2689 19.714L82.7469 20.866C82.2069 20.374 81.6369 20.02 81.0369 19.804C80.4369 19.576 79.7649 19.462 79.0209 19.462C78.0729 19.462 77.3169 19.684 76.7529 20.128C76.1889 20.56 75.9069 21.136 75.9069 21.856C75.9069 22.432 76.0809 22.888 76.4289 23.224C76.7889 23.56 77.3709 23.806 78.1749 23.962L80.0469 24.358C81.2589 24.61 82.1529 24.994 82.7289 25.51C83.3169 26.014 83.6109 26.704 83.6109 27.58C83.6109 28.288 83.4189 28.912 83.0349 29.452C82.6629 29.992 82.1229 30.412 81.4149 30.712C80.7189 31.012 79.8909 31.162 78.9309 31.162ZM85.5231 20.074V18.436H87.3231V20.074H85.5231ZM85.7031 31V22.252H87.1611V31H85.7031ZM93.7567 34.402C93.0007 34.402 92.2867 34.3 91.6147 34.096C90.9547 33.904 90.3667 33.61 89.8507 33.214L90.3367 32.152C90.8767 32.536 91.4107 32.812 91.9387 32.98C92.4787 33.148 93.0607 33.232 93.6847 33.232C95.4127 33.232 96.2767 32.344 96.2767 30.568V29.02C96.0247 29.572 95.6287 30.01 95.0887 30.334C94.5607 30.646 93.9547 30.802 93.2707 30.802C92.4667 30.802 91.7707 30.616 91.1827 30.244C90.5947 29.872 90.1387 29.362 89.8147 28.714C89.5027 28.054 89.3467 27.292 89.3467 26.428C89.3467 25.564 89.5027 24.808 89.8147 24.16C90.1387 23.5 90.5947 22.99 91.1827 22.63C91.7707 22.27 92.4667 22.09 93.2707 22.09C93.9547 22.09 94.5607 22.246 95.0887 22.558C95.6287 22.87 96.0247 23.296 96.2767 23.836V22.252H97.6987V30.37C97.6987 31.714 97.3627 32.722 96.6907 33.394C96.0307 34.066 95.0527 34.402 93.7567 34.402ZM93.5407 29.614C94.3807 29.614 95.0467 29.326 95.5387 28.75C96.0307 28.174 96.2767 27.4 96.2767 26.428C96.2767 25.456 96.0307 24.688 95.5387 24.124C95.0467 23.548 94.3807 23.26 93.5407 23.26C92.7127 23.26 92.0527 23.548 91.5607 24.124C91.0687 24.688 90.8227 25.456 90.8227 26.428C90.8227 27.4 91.0687 28.174 91.5607 28.75C92.0527 29.326 92.7127 29.614 93.5407 29.614ZM100.434 31V22.252H101.856V23.746C102.144 23.194 102.552 22.78 103.08 22.504C103.608 22.228 104.202 22.09 104.862 22.09C106.938 22.09 107.976 23.242 107.976 25.546V31H106.518V25.636C106.518 24.82 106.356 24.226 106.032 23.854C105.72 23.47 105.216 23.278 104.52 23.278C103.716 23.278 103.074 23.53 102.594 24.034C102.126 24.526 101.892 25.186 101.892 26.014V31H100.434ZM120.489 31.162C118.821 31.162 117.555 30.724 116.691 29.848C115.827 28.96 115.395 27.67 115.395 25.978V18.31H116.871V25.906C116.871 28.534 118.077 29.848 120.489 29.848C122.877 29.848 124.071 28.534 124.071 25.906V18.31H125.547V25.978C125.547 27.67 125.115 28.96 124.251 29.848C123.399 30.724 122.145 31.162 120.489 31.162ZM128.383 34.24V22.252H129.805V23.818C130.069 23.278 130.459 22.858 130.975 22.558C131.503 22.246 132.115 22.09 132.811 22.09C133.591 22.09 134.269 22.276 134.845 22.648C135.433 23.008 135.883 23.53 136.195 24.214C136.519 24.886 136.681 25.69 136.681 26.626C136.681 27.55 136.519 28.354 136.195 29.038C135.883 29.71 135.433 30.232 134.845 30.604C134.269 30.976 133.591 31.162 132.811 31.162C132.139 31.162 131.539 31.012 131.011 30.712C130.483 30.412 130.093 29.998 129.841 29.47V34.24H128.383ZM132.505 29.992C133.321 29.992 133.975 29.704 134.467 29.128C134.959 28.54 135.205 27.706 135.205 26.626C135.205 25.534 134.959 24.7 134.467 24.124C133.975 23.548 133.321 23.26 132.505 23.26C131.689 23.26 131.035 23.548 130.543 24.124C130.051 24.7 129.805 25.534 129.805 26.626C129.805 27.706 130.051 28.54 130.543 29.128C131.035 29.704 131.689 29.992 132.505 29.992ZM145.822 31L142.564 22.252H144.094L146.56 29.29L149.116 22.252H150.358L152.878 29.308L155.38 22.252H156.838L153.562 31H152.176L149.71 24.214L147.226 31H145.822ZM158.455 20.074V18.436H160.255V20.074H158.455ZM158.635 31V22.252H160.093V31H158.635ZM166.328 31.162C165.296 31.162 164.522 30.892 164.006 30.352C163.49 29.8 163.232 29.008 163.232 27.976V23.386H161.522V22.252H163.232V19.57H164.69V22.252H167.462V23.386H164.69V27.832C164.69 28.516 164.834 29.038 165.122 29.398C165.41 29.746 165.878 29.92 166.526 29.92C166.718 29.92 166.91 29.896 167.102 29.848C167.294 29.8 167.468 29.752 167.624 29.704L167.876 30.82C167.72 30.904 167.492 30.982 167.192 31.054C166.892 31.126 166.604 31.162 166.328 31.162ZM169.111 31V18.31H170.569V23.692C170.857 23.164 171.259 22.768 171.775 22.504C172.303 22.228 172.891 22.09 173.539 22.09C175.615 22.09 176.653 23.242 176.653 25.546V31H175.195V25.636C175.195 24.82 175.033 24.226 174.709 23.854C174.397 23.47 173.893 23.278 173.197 23.278C172.393 23.278 171.751 23.53 171.271 24.034C170.803 24.526 170.569 25.186 170.569 26.014V31H169.111ZM189.959 31.162C187.919 31.162 186.365 30.586 185.297 29.434C184.229 28.282 183.695 26.692 183.695 24.664C183.695 23.32 183.935 22.162 184.415 21.19C184.895 20.218 185.585 19.468 186.485 18.94C187.385 18.412 188.471 18.148 189.743 18.148C190.643 18.148 191.471 18.286 192.227 18.562C192.983 18.826 193.625 19.216 194.153 19.732L193.577 20.92C193.001 20.416 192.407 20.05 191.795 19.822C191.183 19.594 190.493 19.48 189.725 19.48C188.285 19.48 187.181 19.936 186.413 20.848C185.645 21.748 185.261 23.02 185.261 24.664C185.261 26.344 185.657 27.628 186.449 28.516C187.241 29.404 188.423 29.848 189.995 29.848C191.015 29.848 191.993 29.674 192.929 29.326V25.564H189.707V24.394H194.207V30.262C193.871 30.442 193.463 30.598 192.983 30.73C192.515 30.862 192.017 30.964 191.489 31.036C190.961 31.12 190.451 31.162 189.959 31.162ZM200.661 31.162C199.809 31.162 199.071 30.976 198.447 30.604C197.823 30.232 197.337 29.71 196.989 29.038C196.653 28.354 196.485 27.55 196.485 26.626C196.485 25.702 196.653 24.904 196.989 24.232C197.337 23.548 197.823 23.02 198.447 22.648C199.071 22.276 199.809 22.09 200.661 22.09C201.501 22.09 202.233 22.276 202.857 22.648C203.493 23.02 203.979 23.548 204.315 24.232C204.663 24.904 204.837 25.702 204.837 26.626C204.837 27.55 204.663 28.354 204.315 29.038C203.979 29.71 203.493 30.232 202.857 30.604C202.233 30.976 201.501 31.162 200.661 31.162ZM200.661 29.992C201.477 29.992 202.131 29.704 202.623 29.128C203.115 28.54 203.361 27.706 203.361 26.626C203.361 25.534 203.115 24.7 202.623 24.124C202.131 23.548 201.477 23.26 200.661 23.26C199.833 23.26 199.173 23.548 198.681 24.124C198.201 24.7 197.961 25.534 197.961 26.626C197.961 27.706 198.201 28.54 198.681 29.128C199.173 29.704 199.833 29.992 200.661 29.992ZM210.663 31.162C209.811 31.162 209.073 30.976 208.449 30.604C207.825 30.232 207.339 29.71 206.991 29.038C206.655 28.354 206.487 27.55 206.487 26.626C206.487 25.702 206.655 24.904 206.991 24.232C207.339 23.548 207.825 23.02 208.449 22.648C209.073 22.276 209.811 22.09 210.663 22.09C211.503 22.09 212.235 22.276 212.859 22.648C213.495 23.02 213.981 23.548 214.317 24.232C214.665 24.904 214.839 25.702 214.839 26.626C214.839 27.55 214.665 28.354 214.317 29.038C213.981 29.71 213.495 30.232 212.859 30.604C212.235 30.976 211.503 31.162 210.663 31.162ZM210.663 29.992C211.479 29.992 212.133 29.704 212.625 29.128C213.117 28.54 213.363 27.706 213.363 26.626C213.363 25.534 213.117 24.7 212.625 24.124C212.133 23.548 211.479 23.26 210.663 23.26C209.835 23.26 209.175 23.548 208.683 24.124C208.203 24.7 207.963 25.534 207.963 26.626C207.963 27.706 208.203 28.54 208.683 29.128C209.175 29.704 209.835 29.992 210.663 29.992ZM220.899 34.402C220.143 34.402 219.429 34.3 218.757 34.096C218.097 33.904 217.509 33.61 216.993 33.214L217.479 32.152C218.019 32.536 218.553 32.812 219.081 32.98C219.621 33.148 220.203 33.232 220.827 33.232C222.555 33.232 223.419 32.344 223.419 30.568V29.02C223.167 29.572 222.771 30.01 222.231 30.334C221.703 30.646 221.097 30.802 220.413 30.802C219.609 30.802 218.913 30.616 218.325 30.244C217.737 29.872 217.281 29.362 216.957 28.714C216.645 28.054 216.489 27.292 216.489 26.428C216.489 25.564 216.645 24.808 216.957 24.16C217.281 23.5 217.737 22.99 218.325 22.63C218.913 22.27 219.609 22.09 220.413 22.09C221.097 22.09 221.703 22.246 222.231 22.558C222.771 22.87 223.167 23.296 223.419 23.836V22.252H224.841V30.37C224.841 31.714 224.505 32.722 223.833 33.394C223.173 34.066 222.195 34.402 220.899 34.402ZM220.683 29.614C221.523 29.614 222.189 29.326 222.681 28.75C223.173 28.174 223.419 27.4 223.419 26.428C223.419 25.456 223.173 24.688 222.681 24.124C222.189 23.548 221.523 23.26 220.683 23.26C219.855 23.26 219.195 23.548 218.703 24.124C218.211 24.688 217.965 25.456 217.965 26.428C217.965 27.4 218.211 28.174 218.703 28.75C219.195 29.326 219.855 29.614 220.683 29.614ZM230.258 31.162C229.37 31.162 228.698 30.904 228.242 30.388C227.798 29.86 227.576 29.098 227.576 28.102V18.31H229.034V27.994C229.034 29.278 229.544 29.92 230.564 29.92C230.864 29.92 231.134 29.884 231.374 29.812L231.338 31.036C230.966 31.12 230.606 31.162 230.258 31.162ZM236.756 31.162C235.376 31.162 234.284 30.76 233.48 29.956C232.676 29.14 232.274 28.036 232.274 26.644C232.274 25.744 232.454 24.952 232.814 24.268C233.174 23.572 233.666 23.038 234.29 22.666C234.926 22.282 235.658 22.09 236.486 22.09C237.674 22.09 238.604 22.474 239.276 23.242C239.948 23.998 240.284 25.042 240.284 26.374V26.932H233.696C233.744 27.928 234.032 28.69 234.56 29.218C235.088 29.734 235.82 29.992 236.756 29.992C237.284 29.992 237.788 29.914 238.268 29.758C238.748 29.59 239.204 29.32 239.636 28.948L240.14 29.974C239.744 30.346 239.24 30.64 238.628 30.856C238.016 31.06 237.392 31.162 236.756 31.162ZM236.522 23.17C235.694 23.17 235.04 23.428 234.56 23.944C234.08 24.46 233.798 25.138 233.714 25.978H239.024C238.988 25.09 238.754 24.4 238.322 23.908C237.902 23.416 237.302 23.17 236.522 23.17Z" fill="black" fill-opacity="0.54"/>
</g>
<defs>
<filter id="filter0_d_332_3124" x="0" y="0" width="323" height="61" filterUnits="userSpaceOnUse" color-interpolation-filters="sRGB">
<feFlood flood-opacity="0" result="BackgroundImageFix"/>
<feColorMatrix in="SourceAlpha" type="matrix" values="0 0 0 0 0 0 0 0 0 0 0 0 0 0 0 0 0 0 127 0" result="hardAlpha"/>
<feOffset dy="4"/>
<feGaussianBlur stdDeviation="2"/>
<feComposite in2="hardAlpha" operator="out"/>
<feColorMatrix type="matrix" values="0 0 0 0 0 0 0 0 0 0 0 0 0 0 0 0 0 0 0.1 0"/>
<feBlend mode="normal" in2="BackgroundImageFix" result="effect1_dropShadow_332_3124"/>
<feBlend mode="normal" in="SourceGraphic" in2="effect1_dropShadow_332_3124" result="shape"/>
</filter>
</defs>
</svg>
