<svg width="25" height="23" viewBox="0 0 25 23" fill="none" xmlns="http://www.w3.org/2000/svg">
<path d="M13.2144 1.66464C12.8683 0.778453 11.5623 0.778453 11.2173 1.66464H11.2162L8.98393 7.68525C8.90618 7.88146 8.76908 8.05006 8.59077 8.16874C8.41245 8.28742 7.98534 8.34989 7.98534 8.34989H2.49961C1.48808 8.34989 1.04379 9.57837 1.84179 10.18L5.74554 13.5998C5.92041 13.7307 6.0482 13.9122 6.11058 14.1181C6.17297 14.3241 6.16673 14.5441 6.09278 14.7464L4.66716 20.6295C4.31992 21.5734 5.44467 22.3861 6.29336 21.8044L11.5958 18.5284C11.7774 18.4042 11.9939 18.3375 12.2158 18.3375C12.4378 18.3375 12.6543 18.4042 12.8359 18.5284L18.1383 21.8044C18.9881 22.3861 20.1118 21.5744 19.7645 20.6295L18.3389 14.7464C18.2649 14.5441 18.2587 14.3241 18.3211 14.1181C18.3835 13.9122 18.5113 13.7307 18.6861 13.5998L22.5899 10.18C23.3868 9.57837 22.9447 8.34989 21.931 8.34989H16.4453C16.2293 8.35044 16.0183 8.28721 15.84 8.16855C15.6617 8.04989 15.5246 7.88137 15.4467 7.68525L13.2144 1.66464Z" stroke="#86E7B8" stroke-width="2" stroke-linecap="round" stroke-linejoin="round"/>
<path d="M7.90196 8.56L12.2157 1V18.22L4.45098 22L5.7451 13.18L1 8.98L7.90196 8.56Z" fill="#86E7B8"/>
</svg>
