<svg width="30" height="25" viewBox="0 0 30 25" fill="none" xmlns="http://www.w3.org/2000/svg">
<path fill-rule="evenodd" clip-rule="evenodd" d="M18.2243 0.611753C19.2576 0.207876 20.3651 0 21.4835 0C22.6019 0 23.7094 0.207876 24.7426 0.611753C25.7757 1.01556 26.7143 1.60738 27.5049 2.35341C28.2957 3.09921 28.9235 3.98507 29.3515 4.95961C29.7796 5.93433 30 6.97907 30 8.03416C30 9.08924 29.7796 10.134 29.3515 11.1087C28.9234 12.0833 28.296 12.9689 27.5051 13.7147L15.9259 24.6381C15.4143 25.1206 14.585 25.1206 14.0734 24.6381L2.49422 13.7147C0.8972 12.2081 0 10.1648 0 8.03416C0 5.90354 0.8972 3.86019 2.49422 2.35362C4.09125 0.847045 6.25728 0.000660806 8.51581 0.000660806C10.7744 0.000660806 12.9404 0.847045 14.5374 2.35362L14.9996 2.78968L15.4617 2.35382C16.2523 1.60769 17.1912 1.01559 18.2243 0.611753ZM21.4835 2.47135C20.7092 2.47135 19.9425 2.61527 19.2272 2.89488C18.5118 3.17448 17.8619 3.5843 17.3145 4.10092L15.9259 5.41095C15.4143 5.89351 14.585 5.89351 14.0734 5.41095L12.685 4.10113C11.5792 3.05802 10.0796 2.47201 8.51581 2.47201C6.95208 2.47201 5.45238 3.05802 4.34665 4.10113C3.24092 5.14423 2.61973 6.55898 2.61973 8.03416C2.61973 9.50933 3.24092 10.9241 4.34665 11.9672L14.9996 22.0168L25.6526 11.9672C26.2003 11.4508 26.6349 10.8375 26.9313 10.1627C27.2277 9.48788 27.3803 8.7646 27.3803 8.03416C27.3803 7.30372 27.2277 6.58043 26.9313 5.90562C26.6349 5.23082 26.2005 4.61771 25.6529 4.10133C25.1055 3.58471 24.4551 3.17448 23.7398 2.89488C23.0245 2.61527 22.2578 2.47135 21.4835 2.47135Z" fill="#00BFB2"/>
</svg>
