<svg width="30" height="25" viewBox="0 0 30 25" fill="none" xmlns="http://www.w3.org/2000/svg">
<path fill-rule="evenodd" clip-rule="evenodd" d="M18.2243 0.611753C19.2576 0.207876 20.3651 0 21.4835 0C22.6019 0 23.7094 0.207876 24.7426 0.611753C25.7757 1.01556 26.7143 1.60738 27.5049 2.35341C28.2957 3.09921 28.9235 3.98507 29.3515 4.95961C29.7796 5.93433 30 6.97907 30 8.03416C30 9.08924 29.7796 10.134 29.3515 11.1087C28.9234 12.0833 28.296 12.9689 27.5051 13.7147L15.9259 24.6381C15.4143 25.1206 14.585 25.1206 14.0734 24.6381L2.49423 13.7147C0.8972 12.2081 0 10.1648 0 8.03416C0 5.90354 0.8972 3.86019 2.49423 2.35362C4.09125 0.847045 6.25728 0.000660807 8.51582 0.000660807C10.7744 0.000660807 12.9404 0.847045 14.5374 2.35362L14.9997 2.78968L15.4617 2.35382C16.2523 1.60769 17.1912 1.01559 18.2243 0.611753Z" fill="#FF4646"/>
</svg>
