<svg width="25" height="31" viewBox="0 0 25 31" fill="none" xmlns="http://www.w3.org/2000/svg">
<path d="M12.3125 2C9.57846 2.00323 6.9573 3.09075 5.02403 5.02402C3.09076 6.95729 2.00324 9.57845 2.00001 12.3125C1.99674 14.5468 2.72656 16.7204 4.07751 18.5C4.07751 18.5 4.35876 18.8703 4.4047 18.9238L12.3125 28.25L20.2241 18.9191C20.2653 18.8694 20.5475 18.5 20.5475 18.5L20.5484 18.4972C21.8987 16.7184 22.6282 14.5457 22.625 12.3125C22.6218 9.57845 21.5343 6.95729 19.601 5.02402C17.6677 3.09075 15.0466 2.00323 12.3125 2V2ZM12.3125 16.0625C11.5708 16.0625 10.8458 15.8426 10.2291 15.4305C9.61244 15.0185 9.13179 14.4328 8.84796 13.7476C8.56413 13.0623 8.48987 12.3083 8.63457 11.5809C8.77926 10.8535 9.13641 10.1853 9.66086 9.66085C10.1853 9.1364 10.8535 8.77925 11.5809 8.63455C12.3084 8.48986 13.0624 8.56412 13.7476 8.84795C14.4328 9.13178 15.0185 9.61243 15.4305 10.2291C15.8426 10.8458 16.0625 11.5708 16.0625 12.3125C16.0613 13.3067 15.6658 14.2598 14.9628 14.9628C14.2598 15.6658 13.3067 16.0613 12.3125 16.0625V16.0625Z" fill="white" stroke="#00BFB2" stroke-width="3"/>
</svg>
