<svg width="23" height="16" viewBox="0 0 23 16" fill="none" xmlns="http://www.w3.org/2000/svg">
<path d="M5.95703 1.40625C6.26302 1.40625 6.52018 1.50065 6.72852 1.68945C6.94336 1.88476 7.05078 2.16471 7.05078 2.5293C7.05078 2.89388 6.94336 3.17057 6.72852 3.35937C6.52018 3.55469 6.26302 3.65234 5.95703 3.65234C5.65755 3.65234 5.40365 3.55469 5.19531 3.35937C4.98698 3.17057 4.88281 2.89388 4.88281 2.5293C4.88281 2.16471 4.98698 1.88476 5.19531 1.68945C5.40365 1.50065 5.65755 1.40625 5.95703 1.40625ZM5.95703 6.67969C6.26302 6.67969 6.52018 6.77409 6.72852 6.96289C6.94336 7.1582 7.05078 7.43815 7.05078 7.80273C7.05078 8.16732 6.94336 8.44401 6.72852 8.63281C6.52018 8.82812 6.26302 8.92578 5.95703 8.92578C5.65755 8.92578 5.40365 8.82812 5.19531 8.63281C4.98698 8.44401 4.88281 8.16732 4.88281 7.80273C4.88281 7.43815 4.98698 7.1582 5.19531 6.96289C5.40365 6.77409 5.65755 6.67969 5.95703 6.67969ZM5.95703 11.9531C6.26302 11.9531 6.52018 12.0475 6.72852 12.2363C6.94336 12.4316 7.05078 12.7116 7.05078 13.0762C7.05078 13.4408 6.94336 13.7174 6.72852 13.9062C6.52018 14.1016 6.26302 14.1992 5.95703 14.1992C5.65755 14.1992 5.40365 14.1016 5.19531 13.9062C4.98698 13.7174 4.88281 13.4408 4.88281 13.0762C4.88281 12.7116 4.98698 12.4316 5.19531 12.2363C5.40365 12.0475 5.65755 11.9531 5.95703 11.9531Z" fill="#028090"/>
</svg>
