<svg width="28" height="26" viewBox="0 0 28 26" fill="none" xmlns="http://www.w3.org/2000/svg">
<path fill-rule="evenodd" clip-rule="evenodd" d="M14 2.39279C8.08566 2.39279 3.29114 7.14177 3.29114 12.9999C3.29114 18.8581 8.08566 23.6071 14 23.6071C19.9143 23.6071 24.7089 18.8581 24.7089 12.9999C24.7089 7.14177 19.9143 2.39279 14 2.39279ZM0.911392 12.9999C0.911392 5.83995 6.77136 0.0356445 14 0.0356445C21.2286 0.0356445 27.0886 5.83995 27.0886 12.9999C27.0886 20.1599 21.2286 25.9642 14 25.9642C6.77136 25.9642 0.911392 20.1599 0.911392 12.9999Z" fill="#00BFB2"/>
<path fill-rule="evenodd" clip-rule="evenodd" d="M14 7.10693C14.6571 7.10693 15.1899 7.6346 15.1899 8.28551V17.7141C15.1899 18.365 14.6571 18.8926 14 18.8926C13.3428 18.8926 12.8101 18.365 12.8101 17.7141V8.28551C12.8101 7.6346 13.3428 7.10693 14 7.10693Z" fill="#00BFB2"/>
<path fill-rule="evenodd" clip-rule="evenodd" d="M8.05063 12.9999C8.05063 12.349 8.58335 11.8213 9.2405 11.8213H18.7595C19.4166 11.8213 19.9494 12.349 19.9494 12.9999C19.9494 13.6508 19.4166 14.1784 18.7595 14.1784H9.2405C8.58335 14.1784 8.05063 13.6508 8.05063 12.9999Z" fill="#00BFB2"/>
</svg>
