<svg width="22" height="24" viewBox="0 0 22 24" fill="none" xmlns="http://www.w3.org/2000/svg">
<path fill-rule="evenodd" clip-rule="evenodd" d="M1.95771 15.9047C3.07344 14.7996 4.58668 14.1787 6.16456 14.1787H15.6836C17.2614 14.1787 18.7747 14.7996 19.8904 15.9047C21.0061 17.0098 21.6329 18.5087 21.6329 20.0716V22.4287C21.6329 23.0796 21.1002 23.6073 20.4431 23.6073C19.7859 23.6073 19.2532 23.0796 19.2532 22.4287V20.0716C19.2532 19.1338 18.8771 18.2345 18.2077 17.5714C17.5382 16.9084 16.6303 16.5359 15.6836 16.5359H6.16456C5.21783 16.5359 4.30988 16.9084 3.64045 17.5714C2.97101 18.2345 2.59493 19.1338 2.59493 20.0716V22.4287C2.59493 23.0796 2.0622 23.6073 1.40505 23.6073C0.747905 23.6073 0.215179 23.0796 0.215179 22.4287V20.0716C0.215179 18.5087 0.841987 17.0098 1.95771 15.9047Z" fill="#00BFB2"/>
<path fill-rule="evenodd" clip-rule="evenodd" d="M10.9241 2.39279C8.95261 2.39279 7.35443 3.97578 7.35443 5.9285C7.35443 7.88122 8.95261 9.46422 10.9241 9.46422C12.8955 9.46422 14.4937 7.88122 14.4937 5.9285C14.4937 3.97578 12.8955 2.39279 10.9241 2.39279ZM4.97468 5.9285C4.97468 2.67397 7.63831 0.0356445 10.9241 0.0356445C14.2098 0.0356445 16.8734 2.67397 16.8734 5.9285C16.8734 9.18304 14.2098 11.8214 10.9241 11.8214C7.63831 11.8214 4.97468 9.18304 4.97468 5.9285Z" fill="#00BFB2"/>
</svg>
