<svg width="20" height="25" viewBox="0 0 20 25" fill="none" xmlns="http://www.w3.org/2000/svg">
<path fill-rule="evenodd" clip-rule="evenodd" d="M3.75 2.5C3.41848 2.5 3.10054 2.6317 2.86612 2.86612C2.6317 3.10054 2.5 3.41848 2.5 3.75V21.321L9.27345 16.4828C9.70807 16.1724 10.2919 16.1724 10.7265 16.4828L17.5 21.321V3.75C17.5 3.41848 17.3683 3.10054 17.1339 2.86612C16.8995 2.6317 16.5815 2.5 16.25 2.5H3.75ZM1.09835 1.09835C1.80161 0.395088 2.75544 0 3.75 0H16.25C17.2446 0 18.1984 0.395088 18.9016 1.09835C19.6049 1.80161 20 2.75544 20 3.75V23.75C20 24.2182 19.7383 24.6472 19.322 24.8615C18.9056 25.0757 18.4045 25.0393 18.0235 24.7672L10 19.0361L1.97655 24.7672C1.59553 25.0393 1.09436 25.0757 0.678023 24.8615C0.261684 24.6472 0 24.2182 0 23.75V3.75C0 2.75544 0.395088 1.80161 1.09835 1.09835Z" fill="#00BFB2"/>
</svg>
