<svg width="21" height="21" viewBox="0 0 21 21" fill="none" xmlns="http://www.w3.org/2000/svg">
<path fill-rule="evenodd" clip-rule="evenodd" d="M10.375 8.64583C9.42001 8.64583 8.64583 9.42001 8.64583 10.375C8.64583 11.33 9.42001 12.1042 10.375 12.1042C11.33 12.1042 12.1042 11.33 12.1042 10.375C12.1042 9.42001 11.33 8.64583 10.375 8.64583ZM6.91667 10.375C6.91667 8.46502 8.46502 6.91667 10.375 6.91667C12.285 6.91667 13.8333 8.46502 13.8333 10.375C13.8333 12.285 12.285 13.8333 10.375 13.8333C8.46502 13.8333 6.91667 12.285 6.91667 10.375Z" fill="#00BFB2"/>
<path fill-rule="evenodd" clip-rule="evenodd" d="M10.375 1.72917C10.1457 1.72917 9.92579 1.82026 9.76365 1.9824C9.60151 2.14454 9.51042 2.36445 9.51042 2.59375V2.74418C9.50863 3.191 9.37623 3.62755 9.12951 4.00009C8.8828 4.37263 8.53253 4.6649 8.12184 4.84092C8.04873 4.87225 7.97182 4.89328 7.89331 4.90354C7.52013 5.03422 7.1184 5.06644 6.72732 4.99553C6.27688 4.91385 5.86123 4.69911 5.53397 4.379L5.52715 4.37233L5.47531 4.32042C5.39502 4.24003 5.29932 4.17592 5.19437 4.13241C5.08941 4.0889 4.9769 4.0665 4.86328 4.0665C4.74966 4.0665 4.63716 4.0889 4.5322 4.13241C4.42724 4.17592 4.33188 4.23969 4.25159 4.32008L4.25091 4.32076C4.17052 4.40105 4.10675 4.49641 4.06324 4.60136C4.01973 4.70632 3.99734 4.81883 3.99734 4.93245C3.99734 5.04607 4.01973 5.15857 4.06324 5.26353C4.10675 5.36849 4.17052 5.46384 4.25091 5.54414L4.30987 5.6031C4.62998 5.93036 4.84469 6.34605 4.92636 6.79649C5.00641 7.23797 4.95504 7.69303 4.77894 8.10528C4.61851 8.52594 4.3376 8.89023 3.97107 9.15238C3.59714 9.41983 3.15139 9.5686 2.69178 9.57935L2.67156 9.57958H2.59375C2.36445 9.57958 2.14454 9.67067 1.9824 9.83281C1.82026 9.99496 1.72917 10.2149 1.72917 10.4442C1.72917 10.6735 1.82026 10.8934 1.9824 11.0555C2.14454 11.2177 2.36445 11.3087 2.59375 11.3087H2.74418C3.191 11.3105 3.62755 11.4429 4.00009 11.6897C4.37134 11.9355 4.66287 12.2842 4.83908 12.6931C5.02243 13.1108 5.07693 13.5737 4.99553 14.0227C4.91385 14.4731 4.69911 14.8888 4.379 15.216L4.37232 15.2229L4.32041 15.2747C4.24003 15.355 4.17592 15.4507 4.13241 15.5556C4.0889 15.6606 4.0665 15.7731 4.0665 15.8867C4.0665 16.0003 4.0889 16.1128 4.13241 16.2178C4.17592 16.3228 4.23969 16.4181 4.32008 16.4984L4.32076 16.4991C4.40105 16.5795 4.4964 16.6432 4.60136 16.6868C4.70632 16.7303 4.81883 16.7527 4.93245 16.7527C5.04607 16.7527 5.15857 16.7303 5.26353 16.6868C5.36849 16.6432 5.46385 16.5795 5.54414 16.4991L5.6031 16.4401C5.93036 16.12 6.34605 15.9053 6.79649 15.8236C7.23797 15.7436 7.69303 15.795 8.10527 15.9711C8.52594 16.1315 8.89022 16.4124 9.15238 16.7789C9.41983 17.1529 9.5686 17.5986 9.57935 18.0582L9.57958 18.0784V18.1562C9.57958 18.3855 9.67067 18.6055 9.83281 18.7676C9.99496 18.9297 10.2149 19.0208 10.4442 19.0208C10.6735 19.0208 10.8934 18.9297 11.0555 18.7676C11.2177 18.6055 11.3087 18.3855 11.3087 18.1562V18.0093L11.3088 18.0058C11.3105 17.559 11.4429 17.1224 11.6897 16.7499C11.9355 16.3786 12.2843 16.0871 12.6932 15.9109C13.1108 15.7276 13.5738 15.6731 14.0227 15.7545C14.4731 15.8361 14.8888 16.0509 15.216 16.371L15.2228 16.3777L15.2747 16.4296C15.355 16.51 15.4507 16.5741 15.5556 16.6176C15.6606 16.6611 15.7731 16.6835 15.8867 16.6835C16.0003 16.6835 16.1128 16.6611 16.2178 16.6176C16.3228 16.5741 16.4181 16.5103 16.4984 16.4299L16.4991 16.4292C16.5795 16.3489 16.6432 16.2536 16.6868 16.1486C16.7303 16.0437 16.7527 15.9312 16.7527 15.8176C16.7527 15.7039 16.7303 15.5914 16.6868 15.4865C16.6432 15.3815 16.5795 15.2862 16.4991 15.2059L16.4401 15.1469C16.12 14.8196 15.9053 14.404 15.8236 13.9535C15.7422 13.5046 15.7967 13.0417 15.98 12.624C16.1562 12.2151 16.4478 11.8664 16.8191 11.6205C17.1916 11.3738 17.6282 11.2414 18.075 11.2396L18.0784 11.2396L18.1562 11.2396C18.3855 11.2396 18.6055 11.1485 18.7676 10.9864C18.9297 10.8242 19.0208 10.6043 19.0208 10.375C19.0208 10.1457 18.9297 9.92579 18.7676 9.76365C18.6055 9.60151 18.3855 9.51042 18.1562 9.51042H18.0093L18.0058 9.51041C17.559 9.50863 17.1224 9.37623 16.7499 9.12951C16.3774 8.8828 16.0851 8.53254 15.9091 8.12184C15.8777 8.04873 15.8567 7.97182 15.8465 7.89331C15.7158 7.52012 15.6836 7.11839 15.7545 6.72732C15.8361 6.27688 16.0509 5.86123 16.371 5.53397L16.3777 5.52715L16.4296 5.47532C16.51 5.39502 16.5741 5.29932 16.6176 5.19437C16.6611 5.08941 16.6835 4.9769 16.6835 4.86328C16.6835 4.74966 16.6611 4.63716 16.6176 4.5322C16.5741 4.42724 16.5103 4.33189 16.4299 4.25159L16.4292 4.25091C16.3489 4.17052 16.2536 4.10675 16.1486 4.06324C16.0437 4.01973 15.9312 3.99734 15.8176 3.99734C15.7039 3.99734 15.5914 4.01973 15.4865 4.06324C15.3815 4.10675 15.2862 4.17052 15.2059 4.25091L15.1469 4.30987C14.8196 4.62998 14.404 4.84469 13.9535 4.92636C13.5046 5.00776 13.0416 4.95327 12.6239 4.76992C12.215 4.5937 11.8663 4.30217 11.6205 3.93093C11.3738 3.55839 11.2414 3.12183 11.2396 2.67501L11.2396 2.67156V2.59375C11.2396 2.36445 11.1485 2.14454 10.9864 1.9824C10.8242 1.82026 10.6043 1.72917 10.375 1.72917ZM16.7729 12.9688L17.5639 13.3178C17.5186 13.4206 17.505 13.5345 17.5251 13.645C17.5449 13.7543 17.5966 13.8552 17.6737 13.9351L17.7211 13.9825C17.721 13.9824 17.7212 13.9826 17.7211 13.9825C17.9621 14.2233 18.1536 14.5096 18.2841 14.8243C18.4146 15.1392 18.4818 15.4767 18.4818 15.8176C18.4818 16.1584 18.4146 16.4959 18.2841 16.8108C18.1536 17.1257 17.9623 17.4117 17.7211 17.6526L17.1101 17.0409L17.7218 17.6519C17.4809 17.8931 17.1948 18.0844 16.88 18.2149C16.5651 18.3455 16.2276 18.4127 15.8867 18.4127C15.5459 18.4127 15.2083 18.3455 14.8935 18.2149C14.5787 18.0845 14.2928 17.8933 14.052 17.6523C14.0521 17.6524 14.0519 17.6522 14.052 17.6523L14.0042 17.6045C13.9244 17.5274 13.8234 17.4757 13.7142 17.4559C13.6037 17.4359 13.4897 17.4494 13.387 17.4947L13.3785 17.4985C13.2778 17.5416 13.1919 17.6133 13.1313 17.7047C13.0711 17.7957 13.0386 17.9023 13.0379 18.0114V18.1562C13.0379 18.8442 12.7646 19.5039 12.2782 19.9903C11.7918 20.4767 11.1321 20.75 10.4442 20.75C9.75626 20.75 9.09653 20.4767 8.61011 19.9903C8.12369 19.5039 7.85042 18.8442 7.85042 18.1562V18.0909C7.84632 17.9809 7.81001 17.8745 7.74592 17.7849C7.68032 17.6931 7.58865 17.6233 7.48281 17.5844C7.46572 17.5781 7.44883 17.5712 7.43216 17.5639C7.32943 17.5186 7.21548 17.505 7.10499 17.5251C6.9957 17.5449 6.89477 17.5966 6.8149 17.6737L6.76753 17.7211C6.76764 17.721 6.76742 17.7212 6.76753 17.7211C6.5267 17.9621 6.24043 18.1536 5.9257 18.2841C5.61082 18.4146 5.27331 18.4818 4.93245 18.4818C4.59159 18.4818 4.25407 18.4146 3.9392 18.2841C3.62462 18.1537 3.3388 17.9626 3.09805 17.7218C2.85689 17.4809 2.66558 17.1948 2.53505 16.88C2.40452 16.5651 2.33734 16.2276 2.33734 15.8867C2.33734 15.5459 2.40452 15.2083 2.53505 14.8935C2.66558 14.5786 2.85689 14.2925 3.09805 14.0516L3.14545 14.0042C3.22255 13.9244 3.27429 13.8235 3.2941 13.7142C3.31414 13.6037 3.30061 13.4897 3.25527 13.387L3.25153 13.3785C3.20836 13.2778 3.13671 13.1919 3.04534 13.1313C2.95431 13.0711 2.84772 13.0386 2.73857 13.0379H2.59375C1.90584 13.0379 1.24611 12.7646 0.759692 12.2782C0.273269 11.7918 0 11.1321 0 10.4442C0 9.75626 0.273269 9.09653 0.759692 8.61011C1.24611 8.12369 1.90584 7.85042 2.59375 7.85042H2.65915C2.76912 7.84632 2.87553 7.81001 2.96513 7.74592C3.05685 7.68032 3.12672 7.58865 3.16564 7.48281C3.17193 7.46572 3.17875 7.44883 3.18611 7.43216C3.23145 7.32943 3.24497 7.21548 3.22494 7.10499C3.20512 6.99571 3.15338 6.89478 3.07627 6.81491L3.02888 6.76753C2.78773 6.52664 2.59641 6.24058 2.46588 5.9257C2.33536 5.61082 2.26817 5.27331 2.26817 4.93245C2.26817 4.59159 2.33536 4.25407 2.46588 3.9392C2.59635 3.62447 2.78755 3.33853 3.02854 3.09771C3.26936 2.85671 3.5553 2.66552 3.87003 2.53505C4.18491 2.40452 4.52242 2.33734 4.86328 2.33734C5.20414 2.33734 5.54166 2.40452 5.85653 2.53505C6.17141 2.66558 6.45747 2.85689 6.69836 3.09805L6.74575 3.14544C6.82561 3.22254 6.92654 3.27429 7.03582 3.2941C7.14631 3.31414 7.26027 3.30061 7.363 3.25527C7.41836 3.23084 7.47599 3.21235 7.5349 3.20002C7.59518 3.1591 7.64722 3.10665 7.68783 3.04534C7.74811 2.95431 7.78057 2.84772 7.78125 2.73857V2.59375C7.78125 1.90584 8.05452 1.24611 8.54094 0.759692C9.02736 0.273269 9.68709 0 10.375 0C11.0629 0 11.7226 0.273269 12.2091 0.759692C12.6955 1.24611 12.9688 1.90584 12.9688 2.59375V2.6694C12.9694 2.77855 13.0019 2.88515 13.0622 2.97617C13.1227 3.06755 13.2086 3.13924 13.3093 3.18241L13.3179 3.18606C13.4206 3.2314 13.5345 3.24497 13.645 3.22494C13.7543 3.20512 13.8552 3.15338 13.9351 3.07628L13.9825 3.02888C14.2234 2.78772 14.5094 2.59641 14.8243 2.46588C15.1392 2.33536 15.4767 2.26817 15.8176 2.26817C16.1584 2.26817 16.4959 2.33536 16.8108 2.46588C17.1257 2.59641 17.4117 2.78773 17.6526 3.02888C17.8935 3.26963 18.0845 3.55545 18.2149 3.87003C18.3455 4.18491 18.4127 4.52242 18.4127 4.86328C18.4127 5.20414 18.3455 5.54166 18.2149 5.85653C18.0845 6.17126 17.8933 6.4572 17.6523 6.69802C17.6524 6.6979 17.6522 6.69813 17.6523 6.69802L17.6046 6.74575C17.5275 6.82561 17.4757 6.92654 17.4559 7.03582C17.4359 7.14631 17.4494 7.26027 17.4947 7.363C17.5192 7.41836 17.5376 7.47599 17.55 7.5349C17.5909 7.59518 17.6433 7.64722 17.7047 7.68783C17.7957 7.74811 17.9023 7.78057 18.0114 7.78125H18.1562C18.8442 7.78125 19.5039 8.05452 19.9903 8.54094C20.4767 9.02736 20.75 9.68709 20.75 10.375C20.75 11.0629 20.4767 11.7226 19.9903 12.2091C19.5039 12.6955 18.8442 12.9688 18.1562 12.9688H18.0806C17.9714 12.9694 17.8649 13.0019 17.7738 13.0622C17.6825 13.1227 17.6108 13.2086 17.5676 13.3093L16.7729 12.9688Z" fill="#00BFB2"/>
</svg>
