<svg width="30" height="25" viewBox="0 0 30 25" fill="none" xmlns="http://www.w3.org/2000/svg">
<path d="M16.5036 6.32046V1.56061C16.5036 1.14671 16.6617 0.749762 16.9431 0.457091C17.2244 0.164421 17.606 0 18.0039 0C18.3975 0.00172388 18.7747 0.164263 19.0541 0.452576L29.5562 11.3768C29.6968 11.5219 29.8084 11.6945 29.8846 11.8847C29.9608 12.0749 30 12.2788 30 12.4849C30 12.6909 29.9608 12.8949 29.8846 13.085C29.8084 13.2752 29.6968 13.4478 29.5562 13.5929L19.0541 24.5171C18.8435 24.7319 18.5767 24.8773 18.2871 24.9352C17.9975 24.9931 17.6979 24.9609 17.4257 24.8427C17.1536 24.7245 16.921 24.5254 16.757 24.2705C16.593 24.0155 16.5049 23.7159 16.5036 23.4091V18.5712H15.2284C12.858 18.5344 10.5084 19.0347 8.34252 20.0372C6.17666 21.0397 4.24647 22.5204 2.68591 24.3767C2.49785 24.6371 2.23615 24.8298 1.93751 24.9278C1.63887 25.0257 1.31825 25.024 1.02058 24.9229C0.717665 24.8166 0.455322 24.6124 0.271803 24.34C0.0882854 24.0677 -0.00681305 23.7416 0.000379562 23.4091C0.000379562 9.17637 12.1228 6.74182 16.5036 6.32046ZM15.2284 15.4188C16.2319 15.4155 17.2344 15.4833 18.229 15.6217C18.5842 15.6777 18.9082 15.8645 19.1422 16.148C19.3763 16.4315 19.5047 16.793 19.5042 17.1667V19.648L26.3756 12.4849L19.5042 5.32167V7.80303C19.5042 8.21693 19.3462 8.61388 19.0648 8.90655C18.7834 9.19922 18.4018 9.36364 18.0039 9.36364C16.6387 9.36364 5.83653 9.67576 3.49607 19.3983C6.8932 16.793 11.0078 15.3973 15.2284 15.4188Z" fill="#00BFB2"/>
</svg>
