<svg width="25" height="23" viewBox="0 0 25 23" fill="none" xmlns="http://www.w3.org/2000/svg">
<path d="M13.4724 1.66464C13.1353 0.778453 11.8639 0.778453 11.5279 1.66464H11.5268L9.35342 7.68525C9.27772 7.88146 9.14423 8.05006 8.97062 8.16874C8.79701 8.28742 8.38116 8.34989 8.38116 8.34989H3.04005C2.05519 8.34989 1.62261 9.57837 2.39958 10.18L6.20041 13.5998C6.37066 13.7307 6.49509 13.9122 6.55583 14.1181C6.61656 14.3241 6.6105 14.5441 6.53849 14.7464L5.15045 20.6295C4.81237 21.5734 5.90747 22.3861 6.73378 21.8044L11.8964 18.5284C12.0732 18.4042 12.284 18.3375 12.5001 18.3375C12.7162 18.3375 12.9271 18.4042 13.1038 18.5284L18.2665 21.8044C19.0938 22.3861 20.1879 21.5744 19.8498 20.6295L18.4618 14.7464C18.3898 14.5441 18.3837 14.3241 18.4444 14.1181C18.5052 13.9122 18.6296 13.7307 18.7998 13.5998L22.6007 10.18C23.3766 9.57837 22.9461 8.34989 21.9592 8.34989H16.618C16.4078 8.35044 16.2023 8.28722 16.0287 8.16855C15.8551 8.04989 15.7216 7.88137 15.6458 7.68525L13.4724 1.66464Z" stroke="#86E7B8" stroke-width="2" stroke-linecap="round" stroke-linejoin="round"/>
</svg>
