<svg width="26" height="25" viewBox="0 0 26 25" fill="none" xmlns="http://www.w3.org/2000/svg">
<path fill-rule="evenodd" clip-rule="evenodd" d="M11.4974 12.4148C11.4974 11.7311 12.0568 11.1769 12.7468 11.1769C13.4368 11.1769 13.9962 11.7311 13.9962 12.4148C13.9962 13.0985 13.4368 13.6527 12.7468 13.6527C12.0568 13.6527 11.4974 13.0985 11.4974 12.4148Z" fill="#00BFB2"/>
<path fill-rule="evenodd" clip-rule="evenodd" d="M15.8702 12.4148C15.8702 11.7311 16.4296 11.1769 17.1196 11.1769C17.8096 11.1769 18.3689 11.7311 18.3689 12.4148C18.3689 13.0985 17.8096 13.6527 17.1196 13.6527C16.4296 13.6527 15.8702 13.0985 15.8702 12.4148Z" fill="#00BFB2"/>
<path fill-rule="evenodd" clip-rule="evenodd" d="M7.12466 12.4148C7.12466 11.7311 7.68402 11.1769 8.37403 11.1769C9.06403 11.1769 9.62339 11.7311 9.62339 12.4148C9.62339 13.0985 9.06403 13.6527 8.37403 13.6527C7.68402 13.6527 7.12466 13.0985 7.12466 12.4148Z" fill="#00BFB2"/>
<path fill-rule="evenodd" clip-rule="evenodd" d="M22.7417 11.7876C22.7417 5.06552 15.3283 0.411056 9.18722 3.48448L9.18249 3.48685L9.18248 3.48684C4.6617 5.72553 2.69752 11.4335 4.99154 15.9336C5.14173 16.2282 5.16695 16.57 5.06161 16.8831L3.47799 21.5905L8.22886 20.0214C8.54488 19.917 8.88988 19.942 9.18722 20.0908C15.2549 23.1275 22.7591 18.3993 22.7418 11.7909L22.7417 11.7876ZM25.2405 11.7862C25.2395 3.26312 15.9031 -2.64821 8.06302 1.27339C2.48244 4.0385 -0.0265846 10.9157 2.53203 16.5731L0.317321 23.1563C0.167674 23.6011 0.284518 24.0915 0.619138 24.4231C0.953758 24.7546 1.44871 24.8704 1.89765 24.7221L8.54144 22.5279C16.2091 25.9397 25.2608 20.0316 25.2405 11.7862Z" fill="#00BFB2"/>
</svg>
