<svg width="23" height="29" viewBox="0 0 23 29" fill="none" xmlns="http://www.w3.org/2000/svg">
<path d="M11.3121 1C8.57809 1.00323 5.95694 2.09075 4.02367 4.02402C2.0904 5.95729 1.00287 8.57845 0.999645 11.3125C0.99637 13.5468 1.72619 15.7204 3.07714 17.5C3.07714 17.5 3.35839 17.8703 3.40433 17.9238L11.3121 27.25L19.2237 17.9191C19.265 17.8694 19.5471 17.5 19.5471 17.5L19.5481 17.4972C20.8984 15.7184 21.6278 13.5457 21.6246 11.3125C21.6214 8.57845 20.5339 5.95729 18.6006 4.02402C16.6674 2.09075 14.0462 1.00323 11.3121 1V1ZM11.3121 15.0625C10.5705 15.0625 9.84544 14.8426 9.22876 14.4305C8.61207 14.0185 8.13142 13.4328 7.8476 12.7476C7.56377 12.0623 7.48951 11.3083 7.6342 10.5809C7.77889 9.85348 8.13605 9.1853 8.66049 8.66085C9.18494 8.1364 9.85313 7.77925 10.5806 7.63455C11.308 7.48986 12.062 7.56412 12.7472 7.84795C13.4324 8.13178 14.0181 8.61243 14.4302 9.22911C14.8422 9.8458 15.0621 10.5708 15.0621 11.3125C15.0609 12.3067 14.6654 13.2598 13.9624 13.9628C13.2594 14.6658 12.3063 15.0613 11.3121 15.0625V15.0625Z" fill="white" stroke="#00BFB2" stroke-width="2"/>
</svg>
